%TF.GenerationSoftware,KiCad,Pcbnew,(5.99.0-11706-g59ad333650)*%
%TF.CreationDate,2021-08-22T22:29:06-05:00*%
%TF.ProjectId,lightwing_prototype,6c696768-7477-4696-9e67-5f70726f746f,rev?*%
%TF.SameCoordinates,Original*%
%TF.FileFunction,Paste,Bot*%
%TF.FilePolarity,Positive*%
%FSLAX46Y46*%
G04 Gerber Fmt 4.6, Leading zero omitted, Abs format (unit mm)*
G04 Created by KiCad (PCBNEW (5.99.0-11706-g59ad333650)) date 2021-08-22 22:29:06*
%MOMM*%
%LPD*%
G01*
G04 APERTURE LIST*
G04 Aperture macros list*
%AMRoundRect*
0 Rectangle with rounded corners*
0 $1 Rounding radius*
0 $2 $3 $4 $5 $6 $7 $8 $9 X,Y pos of 4 corners*
0 Add a 4 corners polygon primitive as box body*
4,1,4,$2,$3,$4,$5,$6,$7,$8,$9,$2,$3,0*
0 Add four circle primitives for the rounded corners*
1,1,$1+$1,$2,$3*
1,1,$1+$1,$4,$5*
1,1,$1+$1,$6,$7*
1,1,$1+$1,$8,$9*
0 Add four rect primitives between the rounded corners*
20,1,$1+$1,$2,$3,$4,$5,0*
20,1,$1+$1,$4,$5,$6,$7,0*
20,1,$1+$1,$6,$7,$8,$9,0*
20,1,$1+$1,$8,$9,$2,$3,0*%
%AMRotRect*
0 Rectangle, with rotation*
0 The origin of the aperture is its center*
0 $1 length*
0 $2 width*
0 $3 Rotation angle, in degrees counterclockwise*
0 Add horizontal line*
21,1,$1,$2,0,0,$3*%
G04 Aperture macros list end*
%ADD10RoundRect,0.123750X-0.656250X-0.123750X0.656250X-0.123750X0.656250X0.123750X-0.656250X0.123750X0*%
%ADD11RoundRect,0.225000X-0.375000X0.225000X-0.375000X-0.225000X0.375000X-0.225000X0.375000X0.225000X0*%
%ADD12RotRect,2.600000X2.600000X80.000000*%
%ADD13RoundRect,0.350000X-0.350000X0.500500X-0.350000X-0.500500X0.350000X-0.500500X0.350000X0.500500X0*%
%ADD14R,2.600000X2.600000*%
%ADD15RoundRect,0.350000X0.350000X-0.500500X0.350000X0.500500X-0.350000X0.500500X-0.350000X-0.500500X0*%
%ADD16R,2.450000X0.570000*%
%ADD17R,2.450000X0.300000*%
G04 APERTURE END LIST*
D10*
%TO.C,U4*%
X131850000Y-56800000D03*
X131850000Y-57750000D03*
X131850000Y-58700000D03*
X129150000Y-58700000D03*
X129150000Y-57750000D03*
X129150000Y-56800000D03*
%TD*%
D11*
%TO.C,D15*%
X131750000Y-69400000D03*
X131750000Y-66099000D03*
%TD*%
D12*
%TO.C,SW14*%
X114928304Y-88807961D03*
X110756090Y-99800465D03*
%TD*%
D11*
%TO.C,D17*%
X135000000Y-74650000D03*
X135000000Y-71349000D03*
%TD*%
D12*
%TO.C,SW17*%
X131928304Y-91807961D03*
X127756090Y-102800465D03*
%TD*%
D13*
%TO.C,C1*%
X127000000Y-51748000D03*
X127000000Y-54250000D03*
%TD*%
D11*
%TO.C,D13*%
X135000000Y-66099000D03*
X135000000Y-69400000D03*
%TD*%
D14*
%TO.C,SW12*%
X92775000Y-65450000D03*
X81225000Y-63250000D03*
%TD*%
D11*
%TO.C,D11*%
X128500000Y-69400000D03*
X128500000Y-66099000D03*
%TD*%
D15*
%TO.C,R3*%
X124750000Y-54250000D03*
X124750000Y-51748000D03*
%TD*%
D14*
%TO.C,SW13*%
X92775000Y-82450000D03*
X81225000Y-80250000D03*
%TD*%
D13*
%TO.C,R7*%
X122500000Y-51748000D03*
X122500000Y-54250000D03*
%TD*%
D14*
%TO.C,SW10*%
X87025000Y-98200000D03*
X75475000Y-96000000D03*
%TD*%
%TO.C,SW11*%
X92775000Y-48450000D03*
X81225000Y-46250000D03*
%TD*%
%TO.C,SW16*%
X110775000Y-65450000D03*
X99225000Y-63250000D03*
%TD*%
D13*
%TO.C,C5*%
X131500000Y-51749000D03*
X131500000Y-54251000D03*
%TD*%
D11*
%TO.C,D12*%
X125250000Y-66099000D03*
X125250000Y-69400000D03*
%TD*%
D13*
%TO.C,R5*%
X129250000Y-51749000D03*
X129250000Y-54251000D03*
%TD*%
D11*
%TO.C,D14*%
X131750000Y-74650000D03*
X131750000Y-71349000D03*
%TD*%
D15*
%TO.C,C3*%
X133750000Y-54250000D03*
X133750000Y-51748000D03*
%TD*%
D14*
%TO.C,SW15*%
X110775000Y-48450000D03*
X99225000Y-46250000D03*
%TD*%
D10*
%TO.C,U1*%
X124850000Y-56800000D03*
X124850000Y-57750000D03*
X124850000Y-58700000D03*
X122150000Y-58700000D03*
X122150000Y-56800000D03*
%TD*%
D16*
%TO.C,J1*%
X79925000Y-58025000D03*
X79925000Y-57250000D03*
D17*
X79925000Y-56050000D03*
X79925000Y-55050000D03*
X79925000Y-54550000D03*
D16*
X79925000Y-51575000D03*
X79925000Y-52350000D03*
D17*
X79925000Y-53050000D03*
X79925000Y-54050000D03*
X79925000Y-55550000D03*
X79925000Y-56550000D03*
X79925000Y-53550000D03*
%TD*%
D13*
%TO.C,C4*%
X136000000Y-51748000D03*
X136000000Y-54250000D03*
%TD*%
D11*
%TO.C,D10*%
X128500000Y-74650000D03*
X128500000Y-71349000D03*
%TD*%
D15*
%TO.C,R6*%
X120250000Y-54250000D03*
X120250000Y-51748000D03*
%TD*%
%TO.C,C2*%
X118000000Y-54250000D03*
X118000000Y-51748000D03*
%TD*%
M02*
