%TF.GenerationSoftware,KiCad,Pcbnew,(5.99.0-11706-g59ad333650)*%
%TF.CreationDate,2021-08-22T22:29:06-05:00*%
%TF.ProjectId,lightwing_prototype,6c696768-7477-4696-9e67-5f70726f746f,rev?*%
%TF.SameCoordinates,Original*%
%TF.FileFunction,Copper,L1,Top*%
%TF.FilePolarity,Positive*%
%FSLAX46Y46*%
G04 Gerber Fmt 4.6, Leading zero omitted, Abs format (unit mm)*
G04 Created by KiCad (PCBNEW (5.99.0-11706-g59ad333650)) date 2021-08-22 22:29:06*
%MOMM*%
%LPD*%
G01*
G04 APERTURE LIST*
G04 Aperture macros list*
%AMRoundRect*
0 Rectangle with rounded corners*
0 $1 Rounding radius*
0 $2 $3 $4 $5 $6 $7 $8 $9 X,Y pos of 4 corners*
0 Add a 4 corners polygon primitive as box body*
4,1,4,$2,$3,$4,$5,$6,$7,$8,$9,$2,$3,0*
0 Add four circle primitives for the rounded corners*
1,1,$1+$1,$2,$3*
1,1,$1+$1,$4,$5*
1,1,$1+$1,$6,$7*
1,1,$1+$1,$8,$9*
0 Add four rect primitives between the rounded corners*
20,1,$1+$1,$2,$3,$4,$5,0*
20,1,$1+$1,$4,$5,$6,$7,0*
20,1,$1+$1,$6,$7,$8,$9,0*
20,1,$1+$1,$8,$9,$2,$3,0*%
%AMRotRect*
0 Rectangle, with rotation*
0 The origin of the aperture is its center*
0 $1 length*
0 $2 width*
0 $3 Rotation angle, in degrees counterclockwise*
0 Add horizontal line*
21,1,$1,$2,0,0,$3*%
%AMFreePoly0*
4,1,36,0.150000,0.259808,0.229813,0.192836,0.281908,0.102606,0.285894,0.080000,0.722099,0.080000,0.743696,0.124776,0.813268,0.180215,0.900000,0.200000,2.000349,0.200000,2.087046,0.180064,2.156522,0.124503,2.195030,0.044310,2.194952,-0.044650,2.156304,-0.124776,2.086732,-0.180215,2.000000,-0.200000,0.899651,-0.200000,0.812954,-0.180064,0.743478,-0.124503,0.722108,-0.080000,
0.285894,-0.080000,0.281908,-0.102606,0.229813,-0.192836,0.150000,-0.259808,0.052094,-0.295442,-0.052094,-0.295442,-0.150000,-0.259808,-0.229813,-0.192836,-0.281908,-0.102606,-0.300000,0.000000,-0.281908,0.102606,-0.229813,0.192836,-0.150000,0.259808,-0.052094,0.295442,0.052094,0.295442,0.150000,0.259808,0.150000,0.259808,$1*%
%AMFreePoly1*
4,1,36,0.150000,0.259808,0.229813,0.192836,0.281908,0.102606,0.300000,0.000000,0.281908,-0.102606,0.229813,-0.192836,0.150000,-0.259808,0.052094,-0.295442,-0.052094,-0.295442,-0.150000,-0.259808,-0.229813,-0.192836,-0.281908,-0.102606,-0.285894,-0.080000,-0.722099,-0.080000,-0.743696,-0.124776,-0.813268,-0.180215,-0.900000,-0.200000,-2.000349,-0.200000,-2.087046,-0.180064,-2.156522,-0.124503,
-2.195030,-0.044310,-2.194952,0.044650,-2.156304,0.124776,-2.086732,0.180215,-2.000000,0.200000,-0.899651,0.200000,-0.812954,0.180064,-0.743478,0.124503,-0.722108,0.080000,-0.285894,0.080000,-0.281908,0.102606,-0.229813,0.192836,-0.150000,0.259808,-0.052094,0.295442,0.052094,0.295442,0.150000,0.259808,0.150000,0.259808,$1*%
%AMFreePoly2*
4,1,54,0.150000,0.259808,0.229813,0.192836,0.281908,0.102606,0.300000,0.000000,0.281908,-0.102606,0.229813,-0.192836,0.150000,-0.259808,0.052094,-0.295442,-0.052094,-0.295442,-0.147559,-0.260696,-0.618431,-0.731569,-0.622499,-0.734418,-0.623577,-0.736284,-0.626884,-0.737488,-0.641191,-0.747505,-0.658589,-0.749027,-0.675000,-0.755000,-2.200000,-0.755000,-2.204890,-0.754138,-2.206973,-0.754696,
-2.210165,-0.753208,-2.227362,-0.750175,-2.240740,-0.738949,-2.256569,-0.731568,-2.638217,-0.349921,-2.650000,-0.359808,-2.747906,-0.395442,-2.852094,-0.395442,-2.950000,-0.359808,-3.029813,-0.292836,-3.081908,-0.202606,-3.100000,-0.100000,-3.081908,0.002606,-3.029813,0.092836,-2.950000,0.159808,-2.852094,0.195442,-2.747906,0.195442,-2.650000,0.159808,-2.570187,0.092836,-2.518092,0.002606,
-2.500000,-0.100000,-2.518092,-0.202606,-2.533159,-0.228703,-2.166863,-0.595000,-0.708138,-0.595000,-0.257690,-0.144553,-0.281908,-0.102606,-0.300000,0.000000,-0.281908,0.102606,-0.229813,0.192836,-0.150000,0.259808,-0.052094,0.295442,0.052094,0.295442,0.150000,0.259808,0.150000,0.259808,$1*%
%AMFreePoly3*
4,1,54,-2.650000,0.359808,-2.570187,0.292836,-2.518092,0.202606,-2.500000,0.100000,-2.518092,-0.002606,-2.540412,-0.041264,-2.168058,-0.395000,-0.508138,-0.395000,-0.257690,-0.144552,-0.281908,-0.102606,-0.300000,0.000000,-0.281908,0.102606,-0.229813,0.192836,-0.150000,0.259808,-0.052094,0.295442,0.052094,0.295442,0.150000,0.259808,0.229813,0.192836,0.281908,0.102606,0.300000,0.000000,
0.281908,-0.102606,0.229813,-0.192836,0.150000,-0.259808,0.052094,-0.295442,-0.052094,-0.295442,-0.147559,-0.260696,-0.418431,-0.531569,-0.422499,-0.534418,-0.423577,-0.536284,-0.426884,-0.537488,-0.441191,-0.547505,-0.458589,-0.549027,-0.475000,-0.555000,-2.200000,-0.555000,-2.203406,-0.554399,-2.204927,-0.554849,-2.207697,-0.553643,-2.227362,-0.550175,-2.239987,-0.539581,-2.255100,-0.533000,
-2.648903,-0.158887,-2.650000,-0.159808,-2.747906,-0.195442,-2.852094,-0.195442,-2.950000,-0.159808,-3.029813,-0.092836,-3.081908,-0.002606,-3.100000,0.100000,-3.081908,0.202606,-3.029813,0.292836,-2.950000,0.359808,-2.852094,0.395442,-2.747906,0.395442,-2.650000,0.359808,-2.650000,0.359808,$1*%
%AMFreePoly4*
4,1,54,-0.670110,0.754138,-0.668027,0.754696,-0.664835,0.753207,-0.647638,0.750175,-0.634262,0.738951,-0.618431,0.731569,-0.147559,0.260696,-0.052094,0.295442,0.052094,0.295442,0.150000,0.259808,0.229813,0.192836,0.281908,0.102606,0.300000,0.000000,0.281908,-0.102606,0.229813,-0.192836,0.150000,-0.259808,0.052094,-0.295442,-0.052094,-0.295442,-0.150000,-0.259808,-0.229813,-0.192836,
-0.281908,-0.102606,-0.300000,0.000000,-0.281908,0.102606,-0.257690,0.144553,-0.708138,0.595000,-2.166863,0.595000,-2.533159,0.228703,-2.518092,0.202606,-2.500000,0.100000,-2.518092,-0.002606,-2.570187,-0.092836,-2.650000,-0.159808,-2.747906,-0.195442,-2.852094,-0.195442,-2.950000,-0.159808,-3.029813,-0.092836,-3.081908,-0.002606,-3.100000,0.100000,-3.081908,0.202606,-3.029813,0.292836,
-2.950000,0.359808,-2.852094,0.395442,-2.747906,0.395442,-2.650000,0.359808,-2.638217,0.349921,-2.256569,0.731568,-2.252502,0.734416,-2.251423,0.736284,-2.248113,0.737489,-2.233809,0.747504,-2.216414,0.749026,-2.200000,0.755000,-0.675000,0.755000,-0.670110,0.754138,-0.670110,0.754138,$1*%
%AMFreePoly5*
4,1,19,0.080057,0.237171,0.164801,0.188864,0.224607,0.111803,0.250371,0.017722,0.238171,-0.079057,0.189864,-0.163800,0.112803,-0.223607,-0.649197,-0.604607,-0.743278,-0.630371,-0.840057,-0.618171,-0.924800,-0.569864,-0.984607,-0.492803,-1.010371,-0.398722,-0.998171,-0.301943,-0.949864,-0.217200,-0.872803,-0.157393,-0.110803,0.223607,-0.016722,0.249371,0.080057,0.237171,0.080057,0.237171,
$1*%
%AMFreePoly6*
4,1,19,0.841057,0.618171,0.925801,0.569864,0.985607,0.492803,1.011371,0.398722,0.999171,0.301943,0.950864,0.217200,0.873803,0.157393,0.111803,-0.223607,0.017722,-0.249371,-0.079057,-0.237171,-0.163800,-0.188864,-0.223607,-0.111803,-0.249371,-0.017722,-0.237171,0.079057,-0.188864,0.163800,-0.111803,0.223607,0.650197,0.604607,0.744278,0.630371,0.841057,0.618171,0.841057,0.618171,
$1*%
G04 Aperture macros list end*
%TA.AperFunction,SMDPad,CuDef*%
%ADD10R,0.900000X0.800000*%
%TD*%
%TA.AperFunction,SMDPad,CuDef*%
%ADD11R,2.160000X1.120000*%
%TD*%
%TA.AperFunction,ComponentPad*%
%ADD12C,0.600000*%
%TD*%
%TA.AperFunction,SMDPad,CuDef*%
%ADD13FreePoly0,0.000000*%
%TD*%
%TA.AperFunction,SMDPad,CuDef*%
%ADD14RoundRect,0.123750X-0.656250X-0.123750X0.656250X-0.123750X0.656250X0.123750X-0.656250X0.123750X0*%
%TD*%
%TA.AperFunction,SMDPad,CuDef*%
%ADD15FreePoly1,0.000000*%
%TD*%
%TA.AperFunction,SMDPad,CuDef*%
%ADD16FreePoly2,0.000000*%
%TD*%
%TA.AperFunction,SMDPad,CuDef*%
%ADD17FreePoly3,0.000000*%
%TD*%
%TA.AperFunction,SMDPad,CuDef*%
%ADD18FreePoly4,0.000000*%
%TD*%
%TA.AperFunction,SMDPad,CuDef*%
%ADD19RoundRect,0.225000X-0.375000X0.225000X-0.375000X-0.225000X0.375000X-0.225000X0.375000X0.225000X0*%
%TD*%
%TA.AperFunction,ComponentPad*%
%ADD20C,0.500000*%
%TD*%
%TA.AperFunction,SMDPad,CuDef*%
%ADD21FreePoly5,270.000000*%
%TD*%
%TA.AperFunction,SMDPad,CuDef*%
%ADD22FreePoly6,270.000000*%
%TD*%
%TA.AperFunction,SMDPad,CuDef*%
%ADD23R,1.524000X0.700000*%
%TD*%
%TA.AperFunction,SMDPad,CuDef*%
%ADD24R,0.700000X1.524000*%
%TD*%
%TA.AperFunction,SMDPad,CuDef*%
%ADD25RotRect,2.600000X2.600000X80.000000*%
%TD*%
%TA.AperFunction,SMDPad,CuDef*%
%ADD26RoundRect,0.350000X-0.350000X0.500500X-0.350000X-0.500500X0.350000X-0.500500X0.350000X0.500500X0*%
%TD*%
%TA.AperFunction,SMDPad,CuDef*%
%ADD27R,2.600000X2.600000*%
%TD*%
%TA.AperFunction,ComponentPad*%
%ADD28RoundRect,0.250000X0.600000X0.750000X-0.600000X0.750000X-0.600000X-0.750000X0.600000X-0.750000X0*%
%TD*%
%TA.AperFunction,ComponentPad*%
%ADD29O,1.700000X2.000000*%
%TD*%
%TA.AperFunction,SMDPad,CuDef*%
%ADD30FreePoly6,90.000000*%
%TD*%
%TA.AperFunction,SMDPad,CuDef*%
%ADD31RoundRect,0.350000X0.350000X-0.500500X0.350000X0.500500X-0.350000X0.500500X-0.350000X-0.500500X0*%
%TD*%
%TA.AperFunction,SMDPad,CuDef*%
%ADD32FreePoly5,90.000000*%
%TD*%
%TA.AperFunction,ComponentPad*%
%ADD33R,0.850000X0.850000*%
%TD*%
%TA.AperFunction,ComponentPad*%
%ADD34O,0.850000X0.850000*%
%TD*%
%TA.AperFunction,SMDPad,CuDef*%
%ADD35R,2.450000X0.570000*%
%TD*%
%TA.AperFunction,SMDPad,CuDef*%
%ADD36R,2.450000X0.300000*%
%TD*%
%TA.AperFunction,SMDPad,CuDef*%
%ADD37RoundRect,0.500000X-0.500000X0.550000X-0.500000X-0.550000X0.500000X-0.550000X0.500000X0.550000X0*%
%TD*%
%TA.AperFunction,ComponentPad*%
%ADD38O,2.100000X1.000000*%
%TD*%
%TA.AperFunction,SMDPad,CuDef*%
%ADD39RoundRect,0.525000X-0.725000X0.525000X-0.725000X-0.525000X0.725000X-0.525000X0.725000X0.525000X0*%
%TD*%
%TA.AperFunction,ComponentPad*%
%ADD40O,1.600000X1.000000*%
%TD*%
%TA.AperFunction,SMDPad,CuDef*%
%ADD41RoundRect,0.250000X0.625000X-0.375000X0.625000X0.375000X-0.625000X0.375000X-0.625000X-0.375000X0*%
%TD*%
G04 APERTURE END LIST*
D10*
%TO.P,Q1,1,G*%
%TO.N,VBUS*%
X119250000Y-58700000D03*
%TO.P,Q1,2,S*%
%TO.N,Net-(C3-Pad1)*%
X119250000Y-56800000D03*
%TO.P,Q1,3,D*%
%TO.N,VBAT*%
X117250000Y-57750000D03*
%TD*%
D11*
%TO.P,SW19,1*%
%TO.N,VBAT*%
X108635000Y-71750000D03*
%TO.P,SW19,2*%
%TO.N,VBAT_IN*%
X115365000Y-71750000D03*
%TD*%
D12*
%TO.P,U4,1,I/O1*%
%TO.N,D-*%
X127700000Y-56800000D03*
D13*
X127700000Y-56800000D03*
D14*
X129150000Y-56800000D03*
%TO.P,U4,2,GND*%
%TO.N,GND*%
X129150000Y-57750000D03*
D12*
X127700000Y-57750000D03*
D13*
X127700000Y-57750000D03*
D14*
%TO.P,U4,3,I/O2*%
%TO.N,D+*%
X129150000Y-58700000D03*
D13*
X127700000Y-58700000D03*
D12*
X127700000Y-58700000D03*
D15*
%TO.P,U4,4,I/O2*%
%TO.N,D_plus*%
X133300000Y-58700000D03*
D12*
X133300000Y-58700000D03*
D14*
X131850000Y-58700000D03*
D12*
X130500000Y-58800000D03*
D16*
X133300000Y-58700000D03*
D14*
%TO.P,U4,5,VBUS*%
%TO.N,VBUS*%
X131850000Y-57750000D03*
D12*
X133300000Y-57750000D03*
X130500000Y-57650000D03*
D17*
X133300000Y-57750000D03*
D15*
X133300000Y-57750000D03*
D12*
%TO.P,U4,6,I/O1*%
%TO.N,D_minus*%
X133300000Y-56800000D03*
D14*
X131850000Y-56800000D03*
D12*
X130500000Y-56700000D03*
D18*
X133300000Y-56800000D03*
D15*
X133300000Y-56800000D03*
%TD*%
D19*
%TO.P,D15,2,A*%
%TO.N,Net-(D15-Pad2)*%
X131750000Y-69400000D03*
D20*
X131369000Y-68620000D03*
D21*
X131750000Y-69401000D03*
D20*
X131369000Y-68620000D03*
%TO.P,D15,1,K*%
%TO.N,ROW0*%
X132131000Y-66861000D03*
D19*
X131750000Y-66100000D03*
D22*
X131750000Y-66099000D03*
D20*
X132131000Y-66861000D03*
%TD*%
D23*
%TO.P,U3,1,GND*%
%TO.N,GND*%
X120750000Y-34549000D03*
%TO.P,U3,2,P1.11*%
%TO.N,unconnected-(U3-Pad2)*%
X120750000Y-35649000D03*
%TO.P,U3,3,P1.10*%
%TO.N,unconnected-(U3-Pad3)*%
X120750000Y-36749000D03*
%TO.P,U3,4,P1.13*%
%TO.N,unconnected-(U3-Pad4)*%
X120750000Y-37849000D03*
%TO.P,U3,5,P1.15*%
%TO.N,unconnected-(U3-Pad5)*%
X120750000Y-38949000D03*
%TO.P,U3,6,P0.03*%
%TO.N,ROW3*%
X120750000Y-40049000D03*
%TO.P,U3,7,P0.02*%
%TO.N,ROW2*%
X120750000Y-41149000D03*
%TO.P,U3,8,P0.28*%
%TO.N,ROW1*%
X120750000Y-42249000D03*
%TO.P,U3,9,P0.29*%
%TO.N,ROW0*%
X120750000Y-43349000D03*
%TO.P,U3,10,P0.30*%
%TO.N,BVOLT*%
X120750000Y-44449000D03*
%TO.P,U3,11,P0.31*%
%TO.N,unconnected-(U3-Pad11)*%
X120750000Y-45549000D03*
%TO.P,U3,12,P0.04*%
%TO.N,unconnected-(U3-Pad12)*%
X120750000Y-46649000D03*
%TO.P,U3,13,P0.05*%
%TO.N,unconnected-(U3-Pad13)*%
X120750000Y-47749000D03*
D24*
%TO.P,U3,14,VDD_nRF*%
%TO.N,+3V3*%
X122000000Y-49249000D03*
%TO.P,U3,15,P0.07*%
%TO.N,unconnected-(U3-Pad15)*%
X123100000Y-49249000D03*
%TO.P,U3,16,P1.09*%
%TO.N,unconnected-(U3-Pad16)*%
X124200000Y-49249000D03*
%TO.P,U3,17,P0.12*%
%TO.N,unconnected-(U3-Pad17)*%
X125300000Y-49249000D03*
%TO.P,U3,18,P0.23*%
%TO.N,SDA*%
X126400000Y-49249000D03*
%TO.P,U3,19,P0.21*%
%TO.N,SCL*%
X127500000Y-49249000D03*
%TO.P,U3,20,P0.19*%
%TO.N,unconnected-(U3-Pad20)*%
X128600000Y-49249000D03*
%TO.P,U3,21,P0.18/RESET*%
%TO.N,RESET*%
X129700000Y-49249000D03*
%TO.P,U3,22,VBUS*%
%TO.N,VBUS*%
X130800000Y-49249000D03*
%TO.P,U3,23,D-*%
%TO.N,D-*%
X131900000Y-49249000D03*
%TO.P,U3,24,D+*%
%TO.N,D+*%
X133000000Y-49249000D03*
D23*
%TO.P,U3,25,GND*%
%TO.N,GND*%
X134250000Y-47749000D03*
%TO.P,U3,26,P0.22*%
%TO.N,COL5*%
X134250000Y-46649000D03*
%TO.P,U3,27,P1.00*%
%TO.N,COL3*%
X134250000Y-45549000D03*
%TO.P,U3,28,P1.03*%
%TO.N,COL2*%
X134250000Y-44449000D03*
%TO.P,U3,29,P1.01*%
%TO.N,COL1*%
X134250000Y-43349000D03*
%TO.P,U3,30,P1.02*%
%TO.N,COL0*%
X134250000Y-42249000D03*
%TO.P,U3,31,SWDCLK*%
%TO.N,SWDCLK*%
X134250000Y-41149000D03*
%TO.P,U3,32,SWDIO*%
%TO.N,SWDIO*%
X134250000Y-40049000D03*
%TO.P,U3,33,P1.04*%
%TO.N,BLUE_LED*%
X134250000Y-38949000D03*
%TO.P,U3,34,P1.06*%
%TO.N,unconnected-(U3-Pad34)*%
X134250000Y-37849000D03*
%TO.P,U3,35,P0.09*%
%TO.N,unconnected-(U3-Pad35)*%
X134250000Y-36749000D03*
%TO.P,U3,36,P0.10*%
%TO.N,unconnected-(U3-Pad36)*%
X134250000Y-35649000D03*
%TO.P,U3,37,GND*%
%TO.N,GND*%
X134250000Y-34549000D03*
%TD*%
D25*
%TO.P,SW14,1,1*%
%TO.N,COL3*%
X113790908Y-95258452D03*
%TO.P,SW14,2,2*%
%TO.N,Net-(D14-Pad2)*%
X113629968Y-83501897D03*
%TD*%
D20*
%TO.P,D17,2,A*%
%TO.N,Net-(D17-Pad2)*%
X134619000Y-73870000D03*
D21*
X135000000Y-74651000D03*
D19*
X135000000Y-74650000D03*
D20*
X134619000Y-73870000D03*
%TO.P,D17,1,K*%
%TO.N,ROW3*%
X135381000Y-72111000D03*
D19*
X135000000Y-71350000D03*
D22*
X135000000Y-71349000D03*
D20*
X135381000Y-72111000D03*
%TD*%
D25*
%TO.P,SW17,1,1*%
%TO.N,COL4*%
X130790908Y-98258452D03*
%TO.P,SW17,2,2*%
%TO.N,Net-(D17-Pad2)*%
X130629968Y-86501897D03*
%TD*%
D26*
%TO.P,C1,1*%
%TO.N,VBUS*%
X127000000Y-51748000D03*
D20*
X127381000Y-52910000D03*
D22*
X127000000Y-52148000D03*
D26*
%TO.P,C1,2*%
%TO.N,GND*%
X127000000Y-54250000D03*
D21*
X127000000Y-53850000D03*
D20*
X126619000Y-53069000D03*
%TD*%
D22*
%TO.P,D13,1,K*%
%TO.N,ROW2*%
X135000000Y-66099000D03*
D20*
X135381000Y-66861000D03*
D19*
X135000000Y-66100000D03*
D20*
X135381000Y-66861000D03*
D21*
%TO.P,D13,2,A*%
%TO.N,Net-(D13-Pad2)*%
X135000000Y-69401000D03*
D20*
X134619000Y-68620000D03*
D19*
X135000000Y-69400000D03*
D20*
X134619000Y-68620000D03*
%TD*%
D27*
%TO.P,SW12,1,1*%
%TO.N,COL3*%
X86225000Y-65450000D03*
%TO.P,SW12,2,2*%
%TO.N,Net-(D12-Pad2)*%
X97775000Y-63250000D03*
%TD*%
D28*
%TO.P,J2,1,Pin_1*%
%TO.N,VBAT_IN*%
X123650000Y-73300000D03*
D29*
%TO.P,J2,2,Pin_2*%
%TO.N,GND*%
X121150000Y-73300000D03*
%TD*%
D21*
%TO.P,D11,2,A*%
%TO.N,Net-(D11-Pad2)*%
X128500000Y-69401000D03*
D19*
X128500000Y-69400000D03*
D20*
X128119000Y-68620000D03*
X128119000Y-68620000D03*
D19*
%TO.P,D11,1,K*%
%TO.N,ROW0*%
X128500000Y-66100000D03*
D20*
X128881000Y-66861000D03*
X128881000Y-66861000D03*
D22*
X128500000Y-66099000D03*
%TD*%
D30*
%TO.P,R3,1*%
%TO.N,Net-(R3-Pad1)*%
X124750000Y-53850000D03*
D20*
X124369000Y-53088000D03*
D31*
X124750000Y-54250000D03*
%TO.P,R3,2*%
%TO.N,GND*%
X124750000Y-51748000D03*
D20*
X125131000Y-52929000D03*
D32*
X124750000Y-52148000D03*
%TD*%
D27*
%TO.P,SW13,1,1*%
%TO.N,COL3*%
X86225000Y-82450000D03*
%TO.P,SW13,2,2*%
%TO.N,Net-(D13-Pad2)*%
X97775000Y-80250000D03*
%TD*%
D26*
%TO.P,R7,1*%
%TO.N,BVOLT*%
X122500000Y-51748000D03*
D20*
X122881000Y-52910000D03*
D22*
X122500000Y-52148000D03*
D21*
%TO.P,R7,2*%
%TO.N,GND*%
X122500000Y-53850000D03*
D26*
X122500000Y-54250000D03*
D20*
X122119000Y-53069000D03*
%TD*%
D33*
%TO.P,J4,1,Pin_1*%
%TO.N,GND*%
X128250000Y-62750000D03*
D34*
%TO.P,J4,2,Pin_2*%
%TO.N,SWDCLK*%
X129250000Y-62750000D03*
%TO.P,J4,3,Pin_3*%
%TO.N,SWDIO*%
X130250000Y-62750000D03*
%TO.P,J4,4,Pin_4*%
%TO.N,+3V3*%
X131250000Y-62750000D03*
%TD*%
D27*
%TO.P,SW10,1,1*%
%TO.N,COL2*%
X80475000Y-98200000D03*
%TO.P,SW10,2,2*%
%TO.N,Net-(D10-Pad2)*%
X92025000Y-96000000D03*
%TD*%
%TO.P,SW11,1,1*%
%TO.N,COL3*%
X86225000Y-48450000D03*
%TO.P,SW11,2,2*%
%TO.N,Net-(D11-Pad2)*%
X97775000Y-46250000D03*
%TD*%
%TO.P,SW16,1,1*%
%TO.N,COL4*%
X104225000Y-65450000D03*
%TO.P,SW16,2,2*%
%TO.N,Net-(D16-Pad2)*%
X115775000Y-63250000D03*
%TD*%
D26*
%TO.P,C5,1*%
%TO.N,VBUS*%
X131500000Y-51749000D03*
D22*
X131500000Y-52149000D03*
D20*
X131881000Y-52911000D03*
D26*
%TO.P,C5,2*%
%TO.N,GND*%
X131500000Y-54251000D03*
D21*
X131500000Y-53851000D03*
D20*
X131119000Y-53070000D03*
%TD*%
%TO.P,D12,1,K*%
%TO.N,ROW1*%
X125631000Y-66861000D03*
D22*
X125250000Y-66099000D03*
D19*
X125250000Y-66100000D03*
D20*
X125631000Y-66861000D03*
%TO.P,D12,2,A*%
%TO.N,Net-(D12-Pad2)*%
X124869000Y-68620000D03*
D19*
X125250000Y-69400000D03*
D21*
X125250000Y-69401000D03*
D20*
X124869000Y-68620000D03*
%TD*%
D33*
%TO.P,J3,1,Pin_1*%
%TO.N,GND*%
X122050000Y-62840000D03*
D34*
%TO.P,J3,2,Pin_2*%
%TO.N,+5V*%
X123050000Y-62840000D03*
%TO.P,J3,3,Pin_3*%
%TO.N,SCL*%
X124050000Y-62840000D03*
%TO.P,J3,4,Pin_4*%
%TO.N,SDA*%
X125050000Y-62840000D03*
%TD*%
D20*
%TO.P,R5,1*%
%TO.N,VBUS*%
X129631000Y-52911000D03*
D22*
X129250000Y-52149000D03*
D26*
X129250000Y-51749000D03*
D20*
%TO.P,R5,2*%
%TO.N,GND*%
X128869000Y-53070000D03*
D26*
X129250000Y-54251000D03*
D21*
X129250000Y-53851000D03*
%TD*%
D19*
%TO.P,D14,2,A*%
%TO.N,Net-(D14-Pad2)*%
X131750000Y-74650000D03*
D21*
X131750000Y-74651000D03*
D20*
X131369000Y-73870000D03*
X131369000Y-73870000D03*
D22*
%TO.P,D14,1,K*%
%TO.N,ROW3*%
X131750000Y-71349000D03*
D20*
X132131000Y-72111000D03*
X132131000Y-72111000D03*
D19*
X131750000Y-71350000D03*
%TD*%
D31*
%TO.P,C3,1*%
%TO.N,Net-(C3-Pad1)*%
X133750000Y-54250000D03*
D20*
X133369000Y-53088000D03*
D30*
X133750000Y-53850000D03*
D20*
%TO.P,C3,2*%
%TO.N,GND*%
X134131000Y-52929000D03*
D31*
X133750000Y-51748000D03*
D32*
X133750000Y-52148000D03*
%TD*%
D27*
%TO.P,SW15,1,1*%
%TO.N,COL4*%
X104225000Y-48450000D03*
%TO.P,SW15,2,2*%
%TO.N,Net-(D15-Pad2)*%
X115775000Y-46250000D03*
%TD*%
D12*
%TO.P,U1,1,STAT*%
%TO.N,Net-(R4-Pad2)*%
X120700000Y-56800000D03*
D14*
X122150000Y-56800000D03*
D13*
X120700000Y-56800000D03*
D12*
%TO.P,U1,2,VSS*%
%TO.N,GND*%
X120700000Y-57750000D03*
D13*
X120700000Y-57750000D03*
D14*
X122150000Y-57750000D03*
%TO.P,U1,3,VBAT*%
%TO.N,VBAT*%
X122150000Y-58700000D03*
D13*
X120700000Y-58700000D03*
D12*
X120700000Y-58700000D03*
D15*
%TO.P,U1,4,VDD*%
%TO.N,VBUS*%
X126300000Y-58700000D03*
D12*
X123500000Y-58800000D03*
D16*
X126300000Y-58700000D03*
D14*
X124850000Y-58700000D03*
D12*
X126300000Y-58700000D03*
%TO.P,U1,5,PROG*%
%TO.N,Net-(R3-Pad1)*%
X126300000Y-56800000D03*
D15*
X126300000Y-56800000D03*
D12*
X123500000Y-56700000D03*
D14*
X124850000Y-56800000D03*
D18*
X126300000Y-56800000D03*
%TD*%
D10*
%TO.P,U2,1,GND*%
%TO.N,GND*%
X136750000Y-58700000D03*
%TO.P,U2,2,VO*%
%TO.N,+3V3*%
X136750000Y-56800000D03*
%TO.P,U2,3,VI*%
%TO.N,Net-(C3-Pad1)*%
X134750000Y-57750000D03*
%TD*%
D35*
%TO.P,J1,A1,GND*%
%TO.N,GND*%
X79925000Y-51575000D03*
%TO.P,J1,A4,VBUS*%
%TO.N,VBUS*%
X79925000Y-52350000D03*
D36*
%TO.P,J1,A5,CC1*%
%TO.N,Net-(J1-PadA5)*%
X79925000Y-53550000D03*
%TO.P,J1,A6,D+*%
%TO.N,D_plus*%
X79925000Y-54550000D03*
%TO.P,J1,A7,D-*%
%TO.N,D_minus*%
X79925000Y-55050000D03*
D35*
%TO.P,J1,B1,GND*%
%TO.N,GND*%
X79925000Y-58025000D03*
%TO.P,J1,B4,VBUS*%
%TO.N,VBUS*%
X79925000Y-57250000D03*
D36*
%TO.P,J1,B5,CC2*%
%TO.N,Net-(J1-PadB5)*%
X79925000Y-56550000D03*
%TO.P,J1,B6,D+*%
%TO.N,D_plus*%
X79925000Y-55550000D03*
%TO.P,J1,B7,D-*%
%TO.N,D_minus*%
X79925000Y-54050000D03*
D37*
%TO.P,J1,S1,SHIELD*%
%TO.N,GND*%
X74330000Y-49950000D03*
X74330000Y-59650000D03*
D38*
X78510000Y-50480000D03*
D39*
X78510000Y-49950000D03*
X78510000Y-59650000D03*
D40*
X74330000Y-59120000D03*
X74330000Y-50480000D03*
D38*
X78510000Y-59120000D03*
D36*
%TO.P,J1,~*%
%TO.N,N/C*%
X79925000Y-53050000D03*
X79925000Y-56050000D03*
%TD*%
D41*
%TO.P,D29,1,K*%
%TO.N,Net-(C3-Pad1)*%
X120250000Y-69400000D03*
%TO.P,D29,2,A*%
%TO.N,VBUS*%
X120250000Y-66600000D03*
%TD*%
D20*
%TO.P,C4,1*%
%TO.N,+3V3*%
X136381000Y-52910000D03*
D22*
X136000000Y-52148000D03*
D26*
X136000000Y-51748000D03*
D21*
%TO.P,C4,2*%
%TO.N,GND*%
X136000000Y-53850000D03*
D26*
X136000000Y-54250000D03*
D20*
X135619000Y-53069000D03*
%TD*%
%TO.P,D10,2,A*%
%TO.N,Net-(D10-Pad2)*%
X128119000Y-73870000D03*
X128119000Y-73870000D03*
D21*
X128500000Y-74651000D03*
D19*
X128500000Y-74650000D03*
%TO.P,D10,1,K*%
%TO.N,ROW3*%
X128500000Y-71350000D03*
D20*
X128881000Y-72111000D03*
X128881000Y-72111000D03*
D22*
X128500000Y-71349000D03*
%TD*%
D31*
%TO.P,R6,1*%
%TO.N,VBAT*%
X120250000Y-54250000D03*
D30*
X120250000Y-53850000D03*
D20*
X119869000Y-53088000D03*
D32*
%TO.P,R6,2*%
%TO.N,BVOLT*%
X120250000Y-52148000D03*
D20*
X120631000Y-52929000D03*
D31*
X120250000Y-51748000D03*
%TD*%
%TO.P,C2,1*%
%TO.N,VBAT*%
X118000000Y-54250000D03*
D20*
X117619000Y-53088000D03*
D30*
X118000000Y-53850000D03*
D20*
%TO.P,C2,2*%
%TO.N,GND*%
X118381000Y-52929000D03*
D31*
X118000000Y-51748000D03*
D32*
X118000000Y-52148000D03*
%TD*%
M02*
