%TF.GenerationSoftware,KiCad,Pcbnew,(5.99.0-11706-g59ad333650)*%
%TF.CreationDate,2021-08-22T22:29:06-05:00*%
%TF.ProjectId,lightwing_prototype,6c696768-7477-4696-9e67-5f70726f746f,rev?*%
%TF.SameCoordinates,Original*%
%TF.FileFunction,Copper,L2,Bot*%
%TF.FilePolarity,Positive*%
%FSLAX46Y46*%
G04 Gerber Fmt 4.6, Leading zero omitted, Abs format (unit mm)*
G04 Created by KiCad (PCBNEW (5.99.0-11706-g59ad333650)) date 2021-08-22 22:29:06*
%MOMM*%
%LPD*%
G01*
G04 APERTURE LIST*
G04 Aperture macros list*
%AMRoundRect*
0 Rectangle with rounded corners*
0 $1 Rounding radius*
0 $2 $3 $4 $5 $6 $7 $8 $9 X,Y pos of 4 corners*
0 Add a 4 corners polygon primitive as box body*
4,1,4,$2,$3,$4,$5,$6,$7,$8,$9,$2,$3,0*
0 Add four circle primitives for the rounded corners*
1,1,$1+$1,$2,$3*
1,1,$1+$1,$4,$5*
1,1,$1+$1,$6,$7*
1,1,$1+$1,$8,$9*
0 Add four rect primitives between the rounded corners*
20,1,$1+$1,$2,$3,$4,$5,0*
20,1,$1+$1,$4,$5,$6,$7,0*
20,1,$1+$1,$6,$7,$8,$9,0*
20,1,$1+$1,$8,$9,$2,$3,0*%
%AMRotRect*
0 Rectangle, with rotation*
0 The origin of the aperture is its center*
0 $1 length*
0 $2 width*
0 $3 Rotation angle, in degrees counterclockwise*
0 Add horizontal line*
21,1,$1,$2,0,0,$3*%
%AMFreePoly0*
4,1,52,3.204890,0.754138,3.206973,0.754696,3.210165,0.753207,3.227362,0.750175,3.240738,0.738951,3.256569,0.731569,3.788137,0.200000,4.700349,0.200000,4.787046,0.180064,4.856522,0.124503,4.895030,0.044310,4.894952,-0.044650,4.856304,-0.124776,4.786732,-0.180215,4.700000,-0.200000,3.599651,-0.200000,3.512954,-0.180064,3.443478,-0.124503,3.404970,-0.044310,3.405048,0.044650,
3.443696,0.124776,3.513268,0.180215,3.568946,0.192916,3.166862,0.595000,0.708137,0.595000,0.257690,0.144552,0.281908,0.102606,0.300000,0.000000,0.281908,-0.102606,0.229813,-0.192836,0.150000,-0.259808,0.052094,-0.295442,-0.052094,-0.295442,-0.150000,-0.259808,-0.229813,-0.192836,-0.281908,-0.102606,-0.300000,0.000000,-0.281908,0.102606,-0.229813,0.192836,-0.150000,0.259808,
-0.052094,0.295442,0.052094,0.295442,0.147559,0.260697,0.618431,0.731568,0.622498,0.734416,0.623577,0.736284,0.626887,0.737489,0.641191,0.747504,0.658586,0.749026,0.675000,0.755000,3.200000,0.755000,3.204890,0.754138,3.204890,0.754138,$1*%
%AMFreePoly1*
4,1,51,0.150000,0.259808,0.229813,0.192836,0.281908,0.102606,0.300000,0.000000,0.281908,-0.102606,0.257690,-0.144552,0.508137,-0.395000,3.168058,-0.395000,3.448535,-0.128547,3.443478,-0.124503,3.404970,-0.044310,3.405048,0.044650,3.443696,0.124776,3.513268,0.180215,3.600000,0.200000,4.700349,0.200000,4.787046,0.180064,4.856522,0.124503,4.895030,0.044310,4.894952,-0.044650,
4.856304,-0.124776,4.786732,-0.180215,4.700000,-0.200000,3.605626,-0.200000,3.255100,-0.533000,3.252216,-0.534911,3.251423,-0.536284,3.248585,-0.537317,3.231939,-0.548347,3.215490,-0.549362,3.200000,-0.555000,0.475000,-0.555000,0.470110,-0.554138,0.468027,-0.554696,0.464835,-0.553208,0.447638,-0.550175,0.434260,-0.538949,0.418431,-0.531568,0.147559,-0.260696,0.052094,-0.295442,
-0.052094,-0.295442,-0.150000,-0.259808,-0.229813,-0.192836,-0.281908,-0.102606,-0.300000,0.000000,-0.281908,0.102606,-0.229813,0.192836,-0.150000,0.259808,-0.052094,0.295442,0.052094,0.295442,0.150000,0.259808,0.150000,0.259808,$1*%
%AMFreePoly2*
4,1,52,0.150000,0.259808,0.229813,0.192836,0.281908,0.102606,0.300000,0.000000,0.281908,-0.102606,0.257690,-0.144552,0.708137,-0.595000,3.166862,-0.595000,3.568928,-0.192935,3.512954,-0.180064,3.443478,-0.124503,3.404970,-0.044310,3.405048,0.044650,3.443696,0.124776,3.513268,0.180215,3.600000,0.200000,4.700349,0.200000,4.787046,0.180064,4.856522,0.124503,4.895030,0.044310,
4.894952,-0.044650,4.856304,-0.124776,4.786732,-0.180215,4.700000,-0.200000,3.788137,-0.200000,3.256569,-0.731569,3.252501,-0.734418,3.251423,-0.736284,3.248116,-0.737488,3.233809,-0.747505,3.216411,-0.749027,3.200000,-0.755000,0.675000,-0.755000,0.670110,-0.754138,0.668027,-0.754696,0.664835,-0.753208,0.647638,-0.750175,0.634260,-0.738949,0.618431,-0.731568,0.147559,-0.260697,
0.052094,-0.295442,-0.052094,-0.295442,-0.150000,-0.259808,-0.229813,-0.192836,-0.281908,-0.102606,-0.300000,0.000000,-0.281908,0.102606,-0.229813,0.192836,-0.150000,0.259808,-0.052094,0.295442,0.052094,0.295442,0.150000,0.259808,0.150000,0.259808,$1*%
%AMFreePoly3*
4,1,36,-0.712954,0.280064,-0.643478,0.224503,-0.622108,0.180000,-0.237224,0.180000,-0.229813,0.192836,-0.150000,0.259808,-0.052094,0.295442,0.052094,0.295442,0.150000,0.259808,0.229813,0.192836,0.281908,0.102606,0.300000,0.000000,0.281908,-0.102606,0.229813,-0.192836,0.150000,-0.259808,0.052094,-0.295442,-0.052094,-0.295442,-0.150000,-0.259808,-0.229813,-0.192836,-0.281908,-0.102606,
-0.300000,0.000000,-0.296474,0.020000,-0.622099,0.020000,-0.643696,-0.024776,-0.713268,-0.080215,-0.800000,-0.100000,-1.900349,-0.100000,-1.987046,-0.080064,-2.056522,-0.024503,-2.095030,0.055690,-2.094952,0.144650,-2.056304,0.224776,-1.986732,0.280215,-1.900000,0.300000,-0.799651,0.300000,-0.712954,0.280064,-0.712954,0.280064,$1*%
%AMFreePoly4*
4,1,36,0.150000,0.259808,0.229813,0.192836,0.281908,0.102606,0.300000,0.000000,0.281908,-0.102606,0.229813,-0.192836,0.150000,-0.259808,0.052094,-0.295442,-0.052094,-0.295442,-0.150000,-0.259808,-0.229813,-0.192836,-0.237224,-0.180000,-0.622099,-0.180000,-0.643696,-0.224776,-0.713268,-0.280215,-0.800000,-0.300000,-1.900349,-0.300000,-1.987046,-0.280064,-2.056522,-0.224503,-2.095030,-0.144310,
-2.094952,-0.055350,-2.056304,0.024776,-1.986732,0.080215,-1.900000,0.100000,-0.799651,0.100000,-0.712954,0.080064,-0.643478,0.024503,-0.622108,-0.020000,-0.296474,-0.020000,-0.300000,0.000000,-0.281908,0.102606,-0.229813,0.192836,-0.150000,0.259808,-0.052094,0.295442,0.052094,0.295442,0.150000,0.259808,0.150000,0.259808,$1*%
%AMFreePoly5*
4,1,31,0.066514,0.445057,0.188753,0.408500,0.295819,0.339104,0.379104,0.242447,0.431912,0.126300,0.450000,0.000000,0.449866,-0.010994,0.428698,-0.136815,0.373067,-0.251637,0.287446,-0.346230,0.178717,-0.412990,0.055621,-0.446549,-0.071947,-0.444211,-0.193730,-0.406163,-0.218857,-0.389437,-0.649197,-0.604607,-0.743278,-0.630371,-0.840057,-0.618171,-0.924800,-0.569864,-0.984607,-0.492803,
-1.010371,-0.398722,-0.998171,-0.301943,-0.949864,-0.217200,-0.872803,-0.157393,-0.441772,0.058122,-0.430337,0.131567,-0.376113,0.247060,-0.291654,0.342692,-0.183749,0.410775,-0.061072,0.445837,0.066514,0.445057,0.066514,0.445057,$1*%
%AMFreePoly6*
4,1,19,0.080057,0.237171,0.164801,0.188864,0.224607,0.111803,0.250371,0.017722,0.238171,-0.079057,0.189864,-0.163800,0.112803,-0.223607,-0.649197,-0.604607,-0.743278,-0.630371,-0.840057,-0.618171,-0.924800,-0.569864,-0.984607,-0.492803,-1.010371,-0.398722,-0.998171,-0.301943,-0.949864,-0.217200,-0.872803,-0.157393,-0.110803,0.223607,-0.016722,0.249371,0.080057,0.237171,0.080057,0.237171,
$1*%
%AMFreePoly7*
4,1,31,0.841057,0.618171,0.925801,0.569864,0.985607,0.492803,1.011371,0.398722,0.999171,0.301943,0.950864,0.217200,0.873803,0.157393,0.441861,-0.058578,0.431356,-0.121014,0.428698,-0.136815,0.373067,-0.251637,0.287446,-0.346230,0.178717,-0.412990,0.055621,-0.446549,-0.071947,-0.444211,-0.193730,-0.406163,-0.299940,-0.335464,-0.382037,-0.237797,-0.433423,-0.121014,-0.449966,0.005498,
-0.430337,0.131567,-0.376113,0.247060,-0.291654,0.342692,-0.183749,0.410775,-0.061072,0.445837,0.066514,0.445057,0.188753,0.408500,0.218901,0.388959,0.650197,0.604607,0.744278,0.630371,0.841057,0.618171,0.841057,0.618171,$1*%
%AMFreePoly8*
4,1,19,0.841057,0.618171,0.925801,0.569864,0.985607,0.492803,1.011371,0.398722,0.999171,0.301943,0.950864,0.217200,0.873803,0.157393,0.111803,-0.223607,0.017722,-0.249371,-0.079057,-0.237171,-0.163800,-0.188864,-0.223607,-0.111803,-0.249371,-0.017722,-0.237171,0.079057,-0.188864,0.163800,-0.111803,0.223607,0.650197,0.604607,0.744278,0.630371,0.841057,0.618171,0.841057,0.618171,
$1*%
%AMFreePoly9*
4,1,36,0.150000,0.259808,0.229813,0.192836,0.281908,0.102606,0.285894,0.080000,3.422099,0.080000,3.443696,0.124776,3.513268,0.180215,3.600000,0.200000,4.700349,0.200000,4.787046,0.180064,4.856522,0.124503,4.895030,0.044310,4.894952,-0.044650,4.856304,-0.124776,4.786732,-0.180215,4.700000,-0.200000,3.599651,-0.200000,3.512954,-0.180064,3.443478,-0.124503,3.422108,-0.080000,
0.285894,-0.080000,0.281908,-0.102606,0.229813,-0.192836,0.150000,-0.259808,0.052094,-0.295442,-0.052094,-0.295442,-0.150000,-0.259808,-0.229813,-0.192836,-0.281908,-0.102606,-0.300000,0.000000,-0.281908,0.102606,-0.229813,0.192836,-0.150000,0.259808,-0.052094,0.295442,0.052094,0.295442,0.150000,0.259808,0.150000,0.259808,$1*%
G04 Aperture macros list end*
%TA.AperFunction,SMDPad,CuDef*%
%ADD10FreePoly0,0.000000*%
%TD*%
%TA.AperFunction,ComponentPad*%
%ADD11C,0.600000*%
%TD*%
%TA.AperFunction,SMDPad,CuDef*%
%ADD12RoundRect,0.123750X-0.656250X-0.123750X0.656250X-0.123750X0.656250X0.123750X-0.656250X0.123750X0*%
%TD*%
%TA.AperFunction,SMDPad,CuDef*%
%ADD13FreePoly1,0.000000*%
%TD*%
%TA.AperFunction,SMDPad,CuDef*%
%ADD14FreePoly2,0.000000*%
%TD*%
%TA.AperFunction,SMDPad,CuDef*%
%ADD15FreePoly3,0.000000*%
%TD*%
%TA.AperFunction,SMDPad,CuDef*%
%ADD16FreePoly4,0.000000*%
%TD*%
%TA.AperFunction,SMDPad,CuDef*%
%ADD17FreePoly5,270.000000*%
%TD*%
%TA.AperFunction,ComponentPad*%
%ADD18C,0.500000*%
%TD*%
%TA.AperFunction,SMDPad,CuDef*%
%ADD19RoundRect,0.225000X-0.375000X0.225000X-0.375000X-0.225000X0.375000X-0.225000X0.375000X0.225000X0*%
%TD*%
%TA.AperFunction,SMDPad,CuDef*%
%ADD20FreePoly6,270.000000*%
%TD*%
%TA.AperFunction,SMDPad,CuDef*%
%ADD21FreePoly7,270.000000*%
%TD*%
%TA.AperFunction,SMDPad,CuDef*%
%ADD22FreePoly8,270.000000*%
%TD*%
%TA.AperFunction,SMDPad,CuDef*%
%ADD23RotRect,2.600000X2.600000X80.000000*%
%TD*%
%TA.AperFunction,SMDPad,CuDef*%
%ADD24RoundRect,0.350000X-0.350000X0.500500X-0.350000X-0.500500X0.350000X-0.500500X0.350000X0.500500X0*%
%TD*%
%TA.AperFunction,SMDPad,CuDef*%
%ADD25R,2.600000X2.600000*%
%TD*%
%TA.AperFunction,ComponentPad*%
%ADD26RoundRect,0.250000X0.600000X0.750000X-0.600000X0.750000X-0.600000X-0.750000X0.600000X-0.750000X0*%
%TD*%
%TA.AperFunction,ComponentPad*%
%ADD27O,1.700000X2.000000*%
%TD*%
%TA.AperFunction,SMDPad,CuDef*%
%ADD28RoundRect,0.350000X0.350000X-0.500500X0.350000X0.500500X-0.350000X0.500500X-0.350000X-0.500500X0*%
%TD*%
%TA.AperFunction,SMDPad,CuDef*%
%ADD29FreePoly8,90.000000*%
%TD*%
%TA.AperFunction,SMDPad,CuDef*%
%ADD30FreePoly6,90.000000*%
%TD*%
%TA.AperFunction,ComponentPad*%
%ADD31R,0.850000X0.850000*%
%TD*%
%TA.AperFunction,ComponentPad*%
%ADD32O,0.850000X0.850000*%
%TD*%
%TA.AperFunction,SMDPad,CuDef*%
%ADD33FreePoly9,0.000000*%
%TD*%
%TA.AperFunction,SMDPad,CuDef*%
%ADD34R,2.450000X0.570000*%
%TD*%
%TA.AperFunction,SMDPad,CuDef*%
%ADD35R,2.450000X0.300000*%
%TD*%
%TA.AperFunction,ComponentPad*%
%ADD36O,2.100000X1.000000*%
%TD*%
%TA.AperFunction,SMDPad,CuDef*%
%ADD37RoundRect,0.525000X-0.725000X0.525000X-0.725000X-0.525000X0.725000X-0.525000X0.725000X0.525000X0*%
%TD*%
%TA.AperFunction,ComponentPad*%
%ADD38O,1.600000X1.000000*%
%TD*%
%TA.AperFunction,SMDPad,CuDef*%
%ADD39RoundRect,0.500000X-0.500000X0.550000X-0.500000X-0.550000X0.500000X-0.550000X0.500000X0.550000X0*%
%TD*%
G04 APERTURE END LIST*
D10*
%TO.P,U4,1,I/O1*%
%TO.N,D-*%
X127700000Y-56800000D03*
D11*
X127700000Y-56800000D03*
D12*
X131850000Y-56800000D03*
%TO.P,U4,2,GND*%
%TO.N,GND*%
X131850000Y-57750000D03*
D13*
X127700000Y-57750000D03*
D11*
X127700000Y-57750000D03*
D12*
%TO.P,U4,3,I/O2*%
%TO.N,D+*%
X131850000Y-58700000D03*
D14*
X127700000Y-58700000D03*
D11*
X127700000Y-58700000D03*
%TO.P,U4,4,I/O2*%
%TO.N,D_plus*%
X133300000Y-58700000D03*
D12*
X129150000Y-58700000D03*
D15*
X130500000Y-58800000D03*
D11*
X130500000Y-58800000D03*
D16*
%TO.P,U4,5,VBUS*%
%TO.N,VBUS*%
X130500000Y-57650000D03*
D12*
X129150000Y-57750000D03*
D11*
X133300000Y-57750000D03*
X130500000Y-57650000D03*
%TO.P,U4,6,I/O1*%
%TO.N,D_minus*%
X133300000Y-56800000D03*
D12*
X129150000Y-56800000D03*
D11*
X130500000Y-56700000D03*
D16*
X130500000Y-56700000D03*
%TD*%
D17*
%TO.P,D15,2,A*%
%TO.N,Net-(D15-Pad2)*%
X131750000Y-69400000D03*
D18*
X131369000Y-68620000D03*
X131369000Y-68620000D03*
D19*
X131750000Y-69400000D03*
D20*
X131750000Y-69401000D03*
D18*
%TO.P,D15,1,K*%
%TO.N,ROW0*%
X132131000Y-66861000D03*
D21*
X131750000Y-66099000D03*
D19*
X131750000Y-66099000D03*
D22*
X131750000Y-66099000D03*
D18*
X132131000Y-66861000D03*
%TD*%
D23*
%TO.P,SW14,1,1*%
%TO.N,COL3*%
X114928304Y-88807961D03*
%TO.P,SW14,2,2*%
%TO.N,Net-(D14-Pad2)*%
X110756090Y-99800465D03*
%TD*%
D20*
%TO.P,D17,2,A*%
%TO.N,Net-(D17-Pad2)*%
X135000000Y-74651000D03*
D18*
X134619000Y-73870000D03*
D19*
X135000000Y-74650000D03*
D17*
X135000000Y-74650000D03*
D18*
X134619000Y-73870000D03*
D21*
%TO.P,D17,1,K*%
%TO.N,ROW3*%
X135000000Y-71349000D03*
D18*
X135381000Y-72111000D03*
D19*
X135000000Y-71349000D03*
D18*
X135381000Y-72111000D03*
D22*
X135000000Y-71349000D03*
%TD*%
D23*
%TO.P,SW17,1,1*%
%TO.N,COL4*%
X131928304Y-91807961D03*
%TO.P,SW17,2,2*%
%TO.N,Net-(D17-Pad2)*%
X127756090Y-102800465D03*
%TD*%
D24*
%TO.P,C1,1*%
%TO.N,VBUS*%
X127000000Y-51748000D03*
D18*
X127381000Y-52910000D03*
D22*
X127000000Y-52148000D03*
D24*
%TO.P,C1,2*%
%TO.N,GND*%
X127000000Y-54250000D03*
D18*
X126619000Y-53069000D03*
D20*
X127000000Y-53850000D03*
%TD*%
D21*
%TO.P,D13,1,K*%
%TO.N,ROW2*%
X135000000Y-66099000D03*
D18*
X135381000Y-66861000D03*
D19*
X135000000Y-66099000D03*
D18*
X135381000Y-66861000D03*
D22*
X135000000Y-66099000D03*
D17*
%TO.P,D13,2,A*%
%TO.N,Net-(D13-Pad2)*%
X135000000Y-69400000D03*
D20*
X135000000Y-69401000D03*
D18*
X134619000Y-68620000D03*
X134619000Y-68620000D03*
D19*
X135000000Y-69400000D03*
%TD*%
D25*
%TO.P,SW12,1,1*%
%TO.N,COL3*%
X92775000Y-65450000D03*
%TO.P,SW12,2,2*%
%TO.N,Net-(D12-Pad2)*%
X81225000Y-63250000D03*
%TD*%
D26*
%TO.P,J2,1,Pin_1*%
%TO.N,VBAT_IN*%
X123650000Y-73300000D03*
D27*
%TO.P,J2,2,Pin_2*%
%TO.N,GND*%
X121150000Y-73300000D03*
%TD*%
D19*
%TO.P,D11,2,A*%
%TO.N,Net-(D11-Pad2)*%
X128500000Y-69400000D03*
D20*
X128500000Y-69401000D03*
D17*
X128500000Y-69400000D03*
D18*
X128119000Y-68620000D03*
X128119000Y-68620000D03*
D19*
%TO.P,D11,1,K*%
%TO.N,ROW0*%
X128500000Y-66099000D03*
D22*
X128500000Y-66099000D03*
D21*
X128500000Y-66099000D03*
D18*
X128881000Y-66861000D03*
X128881000Y-66861000D03*
%TD*%
D28*
%TO.P,R3,1*%
%TO.N,Net-(R3-Pad1)*%
X124750000Y-54250000D03*
D18*
X124369000Y-53088000D03*
D29*
X124750000Y-53850000D03*
D18*
%TO.P,R3,2*%
%TO.N,GND*%
X125131000Y-52929000D03*
D28*
X124750000Y-51748000D03*
D30*
X124750000Y-52148000D03*
%TD*%
D25*
%TO.P,SW13,1,1*%
%TO.N,COL3*%
X92775000Y-82450000D03*
%TO.P,SW13,2,2*%
%TO.N,Net-(D13-Pad2)*%
X81225000Y-80250000D03*
%TD*%
D24*
%TO.P,R7,1*%
%TO.N,BVOLT*%
X122500000Y-51748000D03*
D18*
X122881000Y-52910000D03*
D22*
X122500000Y-52148000D03*
D20*
%TO.P,R7,2*%
%TO.N,GND*%
X122500000Y-53850000D03*
D24*
X122500000Y-54250000D03*
D18*
X122119000Y-53069000D03*
%TD*%
D31*
%TO.P,J4,1,Pin_1*%
%TO.N,GND*%
X128250000Y-62750000D03*
D32*
%TO.P,J4,2,Pin_2*%
%TO.N,SWDCLK*%
X129250000Y-62750000D03*
%TO.P,J4,3,Pin_3*%
%TO.N,SWDIO*%
X130250000Y-62750000D03*
%TO.P,J4,4,Pin_4*%
%TO.N,+3V3*%
X131250000Y-62750000D03*
%TD*%
D25*
%TO.P,SW10,1,1*%
%TO.N,COL2*%
X87025000Y-98200000D03*
%TO.P,SW10,2,2*%
%TO.N,Net-(D10-Pad2)*%
X75475000Y-96000000D03*
%TD*%
%TO.P,SW11,1,1*%
%TO.N,COL3*%
X92775000Y-48450000D03*
%TO.P,SW11,2,2*%
%TO.N,Net-(D11-Pad2)*%
X81225000Y-46250000D03*
%TD*%
%TO.P,SW16,1,1*%
%TO.N,COL4*%
X110775000Y-65450000D03*
%TO.P,SW16,2,2*%
%TO.N,Net-(D16-Pad2)*%
X99225000Y-63250000D03*
%TD*%
D22*
%TO.P,C5,1*%
%TO.N,VBUS*%
X131500000Y-52149000D03*
D18*
X131881000Y-52911000D03*
D24*
X131500000Y-51749000D03*
D20*
%TO.P,C5,2*%
%TO.N,GND*%
X131500000Y-53851000D03*
D24*
X131500000Y-54251000D03*
D18*
X131119000Y-53070000D03*
%TD*%
D22*
%TO.P,D12,1,K*%
%TO.N,ROW1*%
X125250000Y-66099000D03*
D19*
X125250000Y-66099000D03*
D21*
X125250000Y-66099000D03*
D18*
X125631000Y-66861000D03*
X125631000Y-66861000D03*
D20*
%TO.P,D12,2,A*%
%TO.N,Net-(D12-Pad2)*%
X125250000Y-69401000D03*
D19*
X125250000Y-69400000D03*
D18*
X124869000Y-68620000D03*
D17*
X125250000Y-69400000D03*
D18*
X124869000Y-68620000D03*
%TD*%
D31*
%TO.P,J3,1,Pin_1*%
%TO.N,GND*%
X122050000Y-62840000D03*
D32*
%TO.P,J3,2,Pin_2*%
%TO.N,+5V*%
X123050000Y-62840000D03*
%TO.P,J3,3,Pin_3*%
%TO.N,SCL*%
X124050000Y-62840000D03*
%TO.P,J3,4,Pin_4*%
%TO.N,SDA*%
X125050000Y-62840000D03*
%TD*%
D18*
%TO.P,R5,1*%
%TO.N,VBUS*%
X129631000Y-52911000D03*
D24*
X129250000Y-51749000D03*
D22*
X129250000Y-52149000D03*
D20*
%TO.P,R5,2*%
%TO.N,GND*%
X129250000Y-53851000D03*
D18*
X128869000Y-53070000D03*
D24*
X129250000Y-54251000D03*
%TD*%
D20*
%TO.P,D14,2,A*%
%TO.N,Net-(D14-Pad2)*%
X131750000Y-74651000D03*
D17*
X131750000Y-74650000D03*
D19*
X131750000Y-74650000D03*
D18*
X131369000Y-73870000D03*
X131369000Y-73870000D03*
D22*
%TO.P,D14,1,K*%
%TO.N,ROW3*%
X131750000Y-71349000D03*
D18*
X132131000Y-72111000D03*
D21*
X131750000Y-71349000D03*
D19*
X131750000Y-71349000D03*
D18*
X132131000Y-72111000D03*
%TD*%
D28*
%TO.P,C3,1*%
%TO.N,Net-(C3-Pad1)*%
X133750000Y-54250000D03*
D29*
X133750000Y-53850000D03*
D18*
X133369000Y-53088000D03*
D30*
%TO.P,C3,2*%
%TO.N,GND*%
X133750000Y-52148000D03*
D18*
X134131000Y-52929000D03*
D28*
X133750000Y-51748000D03*
%TD*%
D25*
%TO.P,SW15,1,1*%
%TO.N,COL4*%
X110775000Y-48450000D03*
%TO.P,SW15,2,2*%
%TO.N,Net-(D15-Pad2)*%
X99225000Y-46250000D03*
%TD*%
D11*
%TO.P,U1,1,STAT*%
%TO.N,Net-(R4-Pad2)*%
X120700000Y-56800000D03*
D10*
X120700000Y-56800000D03*
D12*
X124850000Y-56800000D03*
%TO.P,U1,2,VSS*%
%TO.N,GND*%
X124850000Y-57750000D03*
D33*
X120700000Y-57750000D03*
D11*
X120700000Y-57750000D03*
D12*
%TO.P,U1,3,VBAT*%
%TO.N,VBAT*%
X124850000Y-58700000D03*
D11*
X120700000Y-58700000D03*
D14*
X120700000Y-58700000D03*
D15*
%TO.P,U1,4,VDD*%
%TO.N,VBUS*%
X123500000Y-58800000D03*
D11*
X123500000Y-58800000D03*
D12*
X122150000Y-58700000D03*
D11*
X126300000Y-58700000D03*
D16*
%TO.P,U1,5,PROG*%
%TO.N,Net-(R3-Pad1)*%
X123500000Y-56700000D03*
D11*
X126300000Y-56800000D03*
D12*
X122150000Y-56800000D03*
D11*
X123500000Y-56700000D03*
%TD*%
D34*
%TO.P,J1,A1,GND*%
%TO.N,GND*%
X79925000Y-58025000D03*
%TO.P,J1,A4,VBUS*%
%TO.N,VBUS*%
X79925000Y-57250000D03*
D35*
%TO.P,J1,A5,CC1*%
%TO.N,Net-(J1-PadA5)*%
X79925000Y-56050000D03*
%TO.P,J1,A6,D+*%
%TO.N,D_plus*%
X79925000Y-55050000D03*
%TO.P,J1,A7,D-*%
%TO.N,D_minus*%
X79925000Y-54550000D03*
D34*
%TO.P,J1,B1,GND*%
%TO.N,GND*%
X79925000Y-51575000D03*
%TO.P,J1,B4,VBUS*%
%TO.N,VBUS*%
X79925000Y-52350000D03*
D35*
%TO.P,J1,B5,CC2*%
%TO.N,Net-(J1-PadB5)*%
X79925000Y-53050000D03*
%TO.P,J1,B6,D+*%
%TO.N,D_plus*%
X79925000Y-54050000D03*
%TO.P,J1,B7,D-*%
%TO.N,D_minus*%
X79925000Y-55550000D03*
D36*
%TO.P,J1,S1,SHIELD*%
%TO.N,GND*%
X78510000Y-50480000D03*
D37*
X78510000Y-59650000D03*
D38*
X74330000Y-59120000D03*
D37*
X78510000Y-49950000D03*
D39*
X74330000Y-59650000D03*
D38*
X74330000Y-50480000D03*
D36*
X78510000Y-59120000D03*
D39*
X74330000Y-49950000D03*
D35*
%TO.P,J1,~*%
%TO.N,N/C*%
X79925000Y-56550000D03*
X79925000Y-53550000D03*
%TD*%
D22*
%TO.P,C4,1*%
%TO.N,+3V3*%
X136000000Y-52148000D03*
D18*
X136381000Y-52910000D03*
D24*
X136000000Y-51748000D03*
%TO.P,C4,2*%
%TO.N,GND*%
X136000000Y-54250000D03*
D18*
X135619000Y-53069000D03*
D20*
X136000000Y-53850000D03*
%TD*%
D17*
%TO.P,D10,2,A*%
%TO.N,Net-(D10-Pad2)*%
X128500000Y-74650000D03*
D19*
X128500000Y-74650000D03*
D20*
X128500000Y-74651000D03*
D18*
X128119000Y-73870000D03*
X128119000Y-73870000D03*
%TO.P,D10,1,K*%
%TO.N,ROW3*%
X128881000Y-72111000D03*
D22*
X128500000Y-71349000D03*
D21*
X128500000Y-71349000D03*
D18*
X128881000Y-72111000D03*
D19*
X128500000Y-71349000D03*
%TD*%
D28*
%TO.P,R6,1*%
%TO.N,VBAT*%
X120250000Y-54250000D03*
D18*
X119869000Y-53088000D03*
D29*
X120250000Y-53850000D03*
D28*
%TO.P,R6,2*%
%TO.N,BVOLT*%
X120250000Y-51748000D03*
D30*
X120250000Y-52148000D03*
D18*
X120631000Y-52929000D03*
%TD*%
D29*
%TO.P,C2,1*%
%TO.N,VBAT*%
X118000000Y-53850000D03*
D18*
X117619000Y-53088000D03*
D28*
X118000000Y-54250000D03*
D30*
%TO.P,C2,2*%
%TO.N,GND*%
X118000000Y-52148000D03*
D18*
X118381000Y-52929000D03*
D28*
X118000000Y-51748000D03*
%TD*%
M02*
