%TF.GenerationSoftware,KiCad,Pcbnew,(5.99.0-11706-g59ad333650)*%
%TF.CreationDate,2021-08-22T22:29:06-05:00*%
%TF.ProjectId,lightwing_prototype,6c696768-7477-4696-9e67-5f70726f746f,rev?*%
%TF.SameCoordinates,Original*%
%TF.FileFunction,Paste,Top*%
%TF.FilePolarity,Positive*%
%FSLAX46Y46*%
G04 Gerber Fmt 4.6, Leading zero omitted, Abs format (unit mm)*
G04 Created by KiCad (PCBNEW (5.99.0-11706-g59ad333650)) date 2021-08-22 22:29:06*
%MOMM*%
%LPD*%
G01*
G04 APERTURE LIST*
G04 Aperture macros list*
%AMRoundRect*
0 Rectangle with rounded corners*
0 $1 Rounding radius*
0 $2 $3 $4 $5 $6 $7 $8 $9 X,Y pos of 4 corners*
0 Add a 4 corners polygon primitive as box body*
4,1,4,$2,$3,$4,$5,$6,$7,$8,$9,$2,$3,0*
0 Add four circle primitives for the rounded corners*
1,1,$1+$1,$2,$3*
1,1,$1+$1,$4,$5*
1,1,$1+$1,$6,$7*
1,1,$1+$1,$8,$9*
0 Add four rect primitives between the rounded corners*
20,1,$1+$1,$2,$3,$4,$5,0*
20,1,$1+$1,$4,$5,$6,$7,0*
20,1,$1+$1,$6,$7,$8,$9,0*
20,1,$1+$1,$8,$9,$2,$3,0*%
%AMRotRect*
0 Rectangle, with rotation*
0 The origin of the aperture is its center*
0 $1 length*
0 $2 width*
0 $3 Rotation angle, in degrees counterclockwise*
0 Add horizontal line*
21,1,$1,$2,0,0,$3*%
G04 Aperture macros list end*
%ADD10R,0.900000X0.800000*%
%ADD11R,2.160000X1.120000*%
%ADD12RoundRect,0.123750X-0.656250X-0.123750X0.656250X-0.123750X0.656250X0.123750X-0.656250X0.123750X0*%
%ADD13RoundRect,0.225000X-0.375000X0.225000X-0.375000X-0.225000X0.375000X-0.225000X0.375000X0.225000X0*%
%ADD14R,1.524000X0.700000*%
%ADD15R,0.700000X1.524000*%
%ADD16RotRect,2.600000X2.600000X80.000000*%
%ADD17RoundRect,0.350000X-0.350000X0.500500X-0.350000X-0.500500X0.350000X-0.500500X0.350000X0.500500X0*%
%ADD18R,2.600000X2.600000*%
%ADD19RoundRect,0.350000X0.350000X-0.500500X0.350000X0.500500X-0.350000X0.500500X-0.350000X-0.500500X0*%
%ADD20R,2.450000X0.570000*%
%ADD21R,2.450000X0.300000*%
%ADD22RoundRect,0.250000X0.625000X-0.375000X0.625000X0.375000X-0.625000X0.375000X-0.625000X-0.375000X0*%
G04 APERTURE END LIST*
D10*
%TO.C,Q1*%
X119250000Y-58700000D03*
X119250000Y-56800000D03*
X117250000Y-57750000D03*
%TD*%
D11*
%TO.C,SW19*%
X108635000Y-71750000D03*
X115365000Y-71750000D03*
%TD*%
D12*
%TO.C,U4*%
X129150000Y-56800000D03*
X129150000Y-57750000D03*
X129150000Y-58700000D03*
X131850000Y-58700000D03*
X131850000Y-57750000D03*
X131850000Y-56800000D03*
%TD*%
D13*
%TO.C,D15*%
X131750000Y-69400000D03*
X131750000Y-66100000D03*
%TD*%
D14*
%TO.C,U3*%
X120750000Y-34549000D03*
X120750000Y-35649000D03*
X120750000Y-36749000D03*
X120750000Y-37849000D03*
X120750000Y-38949000D03*
X120750000Y-40049000D03*
X120750000Y-41149000D03*
X120750000Y-42249000D03*
X120750000Y-43349000D03*
X120750000Y-44449000D03*
X120750000Y-45549000D03*
X120750000Y-46649000D03*
X120750000Y-47749000D03*
D15*
X122000000Y-49249000D03*
X123100000Y-49249000D03*
X124200000Y-49249000D03*
X125300000Y-49249000D03*
X126400000Y-49249000D03*
X127500000Y-49249000D03*
X128600000Y-49249000D03*
X129700000Y-49249000D03*
X130800000Y-49249000D03*
X131900000Y-49249000D03*
X133000000Y-49249000D03*
D14*
X134250000Y-47749000D03*
X134250000Y-46649000D03*
X134250000Y-45549000D03*
X134250000Y-44449000D03*
X134250000Y-43349000D03*
X134250000Y-42249000D03*
X134250000Y-41149000D03*
X134250000Y-40049000D03*
X134250000Y-38949000D03*
X134250000Y-37849000D03*
X134250000Y-36749000D03*
X134250000Y-35649000D03*
X134250000Y-34549000D03*
%TD*%
D16*
%TO.C,SW14*%
X113790908Y-95258452D03*
X113629968Y-83501897D03*
%TD*%
D13*
%TO.C,D17*%
X135000000Y-74650000D03*
X135000000Y-71350000D03*
%TD*%
D16*
%TO.C,SW17*%
X130790908Y-98258452D03*
X130629968Y-86501897D03*
%TD*%
D17*
%TO.C,C1*%
X127000000Y-51748000D03*
X127000000Y-54250000D03*
%TD*%
D13*
%TO.C,D13*%
X135000000Y-66100000D03*
X135000000Y-69400000D03*
%TD*%
D18*
%TO.C,SW12*%
X86225000Y-65450000D03*
X97775000Y-63250000D03*
%TD*%
D13*
%TO.C,D11*%
X128500000Y-69400000D03*
X128500000Y-66100000D03*
%TD*%
D19*
%TO.C,R3*%
X124750000Y-54250000D03*
X124750000Y-51748000D03*
%TD*%
D18*
%TO.C,SW13*%
X86225000Y-82450000D03*
X97775000Y-80250000D03*
%TD*%
D17*
%TO.C,R7*%
X122500000Y-51748000D03*
X122500000Y-54250000D03*
%TD*%
D18*
%TO.C,SW10*%
X80475000Y-98200000D03*
X92025000Y-96000000D03*
%TD*%
%TO.C,SW11*%
X86225000Y-48450000D03*
X97775000Y-46250000D03*
%TD*%
%TO.C,SW16*%
X104225000Y-65450000D03*
X115775000Y-63250000D03*
%TD*%
D17*
%TO.C,C5*%
X131500000Y-51749000D03*
X131500000Y-54251000D03*
%TD*%
D13*
%TO.C,D12*%
X125250000Y-66100000D03*
X125250000Y-69400000D03*
%TD*%
D17*
%TO.C,R5*%
X129250000Y-51749000D03*
X129250000Y-54251000D03*
%TD*%
D13*
%TO.C,D14*%
X131750000Y-74650000D03*
X131750000Y-71350000D03*
%TD*%
D19*
%TO.C,C3*%
X133750000Y-54250000D03*
X133750000Y-51748000D03*
%TD*%
D18*
%TO.C,SW15*%
X104225000Y-48450000D03*
X115775000Y-46250000D03*
%TD*%
D12*
%TO.C,U1*%
X122150000Y-56800000D03*
X122150000Y-57750000D03*
X122150000Y-58700000D03*
X124850000Y-58700000D03*
X124850000Y-56800000D03*
%TD*%
D10*
%TO.C,U2*%
X136750000Y-58700000D03*
X136750000Y-56800000D03*
X134750000Y-57750000D03*
%TD*%
D20*
%TO.C,J1*%
X79925000Y-51575000D03*
X79925000Y-52350000D03*
D21*
X79925000Y-53550000D03*
X79925000Y-54550000D03*
X79925000Y-55050000D03*
D20*
X79925000Y-58025000D03*
X79925000Y-57250000D03*
D21*
X79925000Y-56550000D03*
X79925000Y-55550000D03*
X79925000Y-54050000D03*
X79925000Y-53050000D03*
X79925000Y-56050000D03*
%TD*%
D22*
%TO.C,D29*%
X120250000Y-69400000D03*
X120250000Y-66600000D03*
%TD*%
D17*
%TO.C,C4*%
X136000000Y-51748000D03*
X136000000Y-54250000D03*
%TD*%
D13*
%TO.C,D10*%
X128500000Y-74650000D03*
X128500000Y-71350000D03*
%TD*%
D19*
%TO.C,R6*%
X120250000Y-54250000D03*
X120250000Y-51748000D03*
%TD*%
%TO.C,C2*%
X118000000Y-54250000D03*
X118000000Y-51748000D03*
%TD*%
M02*
