%TF.GenerationSoftware,KiCad,Pcbnew,(5.99.0-11706-g59ad333650)*%
%TF.CreationDate,2021-08-22T22:29:06-05:00*%
%TF.ProjectId,lightwing_prototype,6c696768-7477-4696-9e67-5f70726f746f,rev?*%
%TF.SameCoordinates,Original*%
%TF.FileFunction,Legend,Top*%
%TF.FilePolarity,Positive*%
%FSLAX46Y46*%
G04 Gerber Fmt 4.6, Leading zero omitted, Abs format (unit mm)*
G04 Created by KiCad (PCBNEW (5.99.0-11706-g59ad333650)) date 2021-08-22 22:29:06*
%MOMM*%
%LPD*%
G01*
G04 APERTURE LIST*
%ADD10C,0.150000*%
%ADD11C,0.152400*%
%ADD12C,0.120000*%
%ADD13C,0.160000*%
%ADD14C,0.200000*%
G04 APERTURE END LIST*
D10*
%TO.C,Q1*%
X118154761Y-60797619D02*
X118059523Y-60750000D01*
X117964285Y-60654761D01*
X117821428Y-60511904D01*
X117726190Y-60464285D01*
X117630952Y-60464285D01*
X117678571Y-60702380D02*
X117583333Y-60654761D01*
X117488095Y-60559523D01*
X117440476Y-60369047D01*
X117440476Y-60035714D01*
X117488095Y-59845238D01*
X117583333Y-59750000D01*
X117678571Y-59702380D01*
X117869047Y-59702380D01*
X117964285Y-59750000D01*
X118059523Y-59845238D01*
X118107142Y-60035714D01*
X118107142Y-60369047D01*
X118059523Y-60559523D01*
X117964285Y-60654761D01*
X117869047Y-60702380D01*
X117678571Y-60702380D01*
X119059523Y-60702380D02*
X118488095Y-60702380D01*
X118773809Y-60702380D02*
X118773809Y-59702380D01*
X118678571Y-59845238D01*
X118583333Y-59940476D01*
X118488095Y-59988095D01*
%TO.C,SW19*%
X110190476Y-69044761D02*
X110333333Y-69092380D01*
X110571428Y-69092380D01*
X110666666Y-69044761D01*
X110714285Y-68997142D01*
X110761904Y-68901904D01*
X110761904Y-68806666D01*
X110714285Y-68711428D01*
X110666666Y-68663809D01*
X110571428Y-68616190D01*
X110380952Y-68568571D01*
X110285714Y-68520952D01*
X110238095Y-68473333D01*
X110190476Y-68378095D01*
X110190476Y-68282857D01*
X110238095Y-68187619D01*
X110285714Y-68140000D01*
X110380952Y-68092380D01*
X110619047Y-68092380D01*
X110761904Y-68140000D01*
X111095238Y-68092380D02*
X111333333Y-69092380D01*
X111523809Y-68378095D01*
X111714285Y-69092380D01*
X111952380Y-68092380D01*
X112857142Y-69092380D02*
X112285714Y-69092380D01*
X112571428Y-69092380D02*
X112571428Y-68092380D01*
X112476190Y-68235238D01*
X112380952Y-68330476D01*
X112285714Y-68378095D01*
X113333333Y-69092380D02*
X113523809Y-69092380D01*
X113619047Y-69044761D01*
X113666666Y-68997142D01*
X113761904Y-68854285D01*
X113809523Y-68663809D01*
X113809523Y-68282857D01*
X113761904Y-68187619D01*
X113714285Y-68140000D01*
X113619047Y-68092380D01*
X113428571Y-68092380D01*
X113333333Y-68140000D01*
X113285714Y-68187619D01*
X113238095Y-68282857D01*
X113238095Y-68520952D01*
X113285714Y-68616190D01*
X113333333Y-68663809D01*
X113428571Y-68711428D01*
X113619047Y-68711428D01*
X113714285Y-68663809D01*
X113761904Y-68616190D01*
X113809523Y-68520952D01*
D11*
%TO.C,U4*%
X130130723Y-54654895D02*
X130130723Y-55312876D01*
X130169428Y-55390285D01*
X130208133Y-55428990D01*
X130285542Y-55467695D01*
X130440361Y-55467695D01*
X130517771Y-55428990D01*
X130556476Y-55390285D01*
X130595180Y-55312876D01*
X130595180Y-54654895D01*
X131330571Y-54925828D02*
X131330571Y-55467695D01*
X131137047Y-54616190D02*
X130943523Y-55196761D01*
X131446685Y-55196761D01*
%TO.C,D15*%
X132117695Y-70339416D02*
X131304895Y-70339416D01*
X131304895Y-70145892D01*
X131343600Y-70029778D01*
X131421009Y-69952368D01*
X131498419Y-69913663D01*
X131653238Y-69874959D01*
X131769352Y-69874959D01*
X131924171Y-69913663D01*
X132001580Y-69952368D01*
X132078990Y-70029778D01*
X132117695Y-70145892D01*
X132117695Y-70339416D01*
X132117695Y-69100863D02*
X132117695Y-69565320D01*
X132117695Y-69333092D02*
X131304895Y-69333092D01*
X131421009Y-69410501D01*
X131498419Y-69487911D01*
X131537123Y-69565320D01*
X131304895Y-68365473D02*
X131304895Y-68752520D01*
X131691942Y-68791225D01*
X131653238Y-68752520D01*
X131614533Y-68675111D01*
X131614533Y-68481587D01*
X131653238Y-68404178D01*
X131691942Y-68365473D01*
X131769352Y-68326768D01*
X131962876Y-68326768D01*
X132040285Y-68365473D01*
X132078990Y-68404178D01*
X132117695Y-68481587D01*
X132117695Y-68675111D01*
X132078990Y-68752520D01*
X132040285Y-68791225D01*
D10*
%TO.C,U3*%
X126738095Y-39701380D02*
X126738095Y-40510904D01*
X126785714Y-40606142D01*
X126833333Y-40653761D01*
X126928571Y-40701380D01*
X127119047Y-40701380D01*
X127214285Y-40653761D01*
X127261904Y-40606142D01*
X127309523Y-40510904D01*
X127309523Y-39701380D01*
X127690476Y-39701380D02*
X128309523Y-39701380D01*
X127976190Y-40082333D01*
X128119047Y-40082333D01*
X128214285Y-40129952D01*
X128261904Y-40177571D01*
X128309523Y-40272809D01*
X128309523Y-40510904D01*
X128261904Y-40606142D01*
X128214285Y-40653761D01*
X128119047Y-40701380D01*
X127833333Y-40701380D01*
X127738095Y-40653761D01*
X127690476Y-40606142D01*
%TO.C,SW14*%
X107480199Y-88144049D02*
X107551901Y-88011631D01*
X107593246Y-87777153D01*
X107562888Y-87675093D01*
X107524262Y-87619928D01*
X107438739Y-87556495D01*
X107344948Y-87539957D01*
X107242888Y-87570314D01*
X107187723Y-87608941D01*
X107124290Y-87694463D01*
X107044318Y-87873777D01*
X106980885Y-87959299D01*
X106925720Y-87997926D01*
X106823660Y-88028283D01*
X106729869Y-88011745D01*
X106644347Y-87948312D01*
X106605720Y-87893147D01*
X106575362Y-87791087D01*
X106616707Y-87556609D01*
X106688410Y-87424191D01*
X106699397Y-87087653D02*
X107725549Y-87026823D01*
X107055191Y-86715206D01*
X107791701Y-86651658D01*
X106848238Y-86243532D01*
X107990156Y-85526164D02*
X107890929Y-86088911D01*
X107940542Y-85807537D02*
X106955735Y-85633889D01*
X107079883Y-85752487D01*
X107157137Y-85862816D01*
X107187494Y-85964877D01*
X107482459Y-84566277D02*
X108138997Y-84682043D01*
X107065949Y-84734604D02*
X107728039Y-85093116D01*
X107835535Y-84483473D01*
D11*
%TO.C,D17*%
X135367695Y-75589416D02*
X134554895Y-75589416D01*
X134554895Y-75395892D01*
X134593600Y-75279778D01*
X134671009Y-75202368D01*
X134748419Y-75163663D01*
X134903238Y-75124959D01*
X135019352Y-75124959D01*
X135174171Y-75163663D01*
X135251580Y-75202368D01*
X135328990Y-75279778D01*
X135367695Y-75395892D01*
X135367695Y-75589416D01*
X135367695Y-74350863D02*
X135367695Y-74815320D01*
X135367695Y-74583092D02*
X134554895Y-74583092D01*
X134671009Y-74660501D01*
X134748419Y-74737911D01*
X134787123Y-74815320D01*
X134554895Y-74079930D02*
X134554895Y-73538063D01*
X135367695Y-73886406D01*
D10*
%TO.C,SW17*%
X124480199Y-91144049D02*
X124551901Y-91011631D01*
X124593246Y-90777153D01*
X124562888Y-90675093D01*
X124524262Y-90619928D01*
X124438739Y-90556495D01*
X124344948Y-90539957D01*
X124242888Y-90570314D01*
X124187723Y-90608941D01*
X124124290Y-90694463D01*
X124044318Y-90873777D01*
X123980885Y-90959299D01*
X123925720Y-90997926D01*
X123823660Y-91028283D01*
X123729869Y-91011745D01*
X123644347Y-90948312D01*
X123605720Y-90893147D01*
X123575362Y-90791087D01*
X123616707Y-90556609D01*
X123688410Y-90424191D01*
X123699397Y-90087653D02*
X124725549Y-90026823D01*
X124055191Y-89715206D01*
X124791701Y-89651658D01*
X123848238Y-89243532D01*
X124990156Y-88526164D02*
X124890929Y-89088911D01*
X124940542Y-88807537D02*
X123955735Y-88633889D01*
X124079883Y-88752487D01*
X124157137Y-88862816D01*
X124187494Y-88964877D01*
X124063231Y-88024246D02*
X124178996Y-87367708D01*
X125089384Y-87963416D01*
D11*
%TO.C,C1*%
X127290285Y-56276974D02*
X127328990Y-56315679D01*
X127367695Y-56431793D01*
X127367695Y-56509202D01*
X127328990Y-56625317D01*
X127251580Y-56702726D01*
X127174171Y-56741431D01*
X127019352Y-56780136D01*
X126903238Y-56780136D01*
X126748419Y-56741431D01*
X126671009Y-56702726D01*
X126593600Y-56625317D01*
X126554895Y-56509202D01*
X126554895Y-56431793D01*
X126593600Y-56315679D01*
X126632304Y-56276974D01*
X127367695Y-55502879D02*
X127367695Y-55967336D01*
X127367695Y-55735107D02*
X126554895Y-55735107D01*
X126671009Y-55812517D01*
X126748419Y-55889926D01*
X126787123Y-55967336D01*
%TO.C,D13*%
X135367695Y-70339416D02*
X134554895Y-70339416D01*
X134554895Y-70145892D01*
X134593600Y-70029778D01*
X134671009Y-69952368D01*
X134748419Y-69913663D01*
X134903238Y-69874959D01*
X135019352Y-69874959D01*
X135174171Y-69913663D01*
X135251580Y-69952368D01*
X135328990Y-70029778D01*
X135367695Y-70145892D01*
X135367695Y-70339416D01*
X135367695Y-69100863D02*
X135367695Y-69565320D01*
X135367695Y-69333092D02*
X134554895Y-69333092D01*
X134671009Y-69410501D01*
X134748419Y-69487911D01*
X134787123Y-69565320D01*
X134554895Y-68829930D02*
X134554895Y-68326768D01*
X134864533Y-68597701D01*
X134864533Y-68481587D01*
X134903238Y-68404178D01*
X134941942Y-68365473D01*
X135019352Y-68326768D01*
X135212876Y-68326768D01*
X135290285Y-68365473D01*
X135328990Y-68404178D01*
X135367695Y-68481587D01*
X135367695Y-68713816D01*
X135328990Y-68791225D01*
X135290285Y-68829930D01*
D10*
%TO.C,SW12*%
X92135476Y-57999761D02*
X92278333Y-58047380D01*
X92516428Y-58047380D01*
X92611666Y-57999761D01*
X92659285Y-57952142D01*
X92706904Y-57856904D01*
X92706904Y-57761666D01*
X92659285Y-57666428D01*
X92611666Y-57618809D01*
X92516428Y-57571190D01*
X92325952Y-57523571D01*
X92230714Y-57475952D01*
X92183095Y-57428333D01*
X92135476Y-57333095D01*
X92135476Y-57237857D01*
X92183095Y-57142619D01*
X92230714Y-57095000D01*
X92325952Y-57047380D01*
X92564047Y-57047380D01*
X92706904Y-57095000D01*
X93040238Y-57047380D02*
X93278333Y-58047380D01*
X93468809Y-57333095D01*
X93659285Y-58047380D01*
X93897380Y-57047380D01*
X94802142Y-58047380D02*
X94230714Y-58047380D01*
X94516428Y-58047380D02*
X94516428Y-57047380D01*
X94421190Y-57190238D01*
X94325952Y-57285476D01*
X94230714Y-57333095D01*
X95183095Y-57142619D02*
X95230714Y-57095000D01*
X95325952Y-57047380D01*
X95564047Y-57047380D01*
X95659285Y-57095000D01*
X95706904Y-57142619D01*
X95754523Y-57237857D01*
X95754523Y-57333095D01*
X95706904Y-57475952D01*
X95135476Y-58047380D01*
X95754523Y-58047380D01*
%TO.C,J2*%
X122066666Y-75552380D02*
X122066666Y-76266666D01*
X122019047Y-76409523D01*
X121923809Y-76504761D01*
X121780952Y-76552380D01*
X121685714Y-76552380D01*
X122495238Y-75647619D02*
X122542857Y-75600000D01*
X122638095Y-75552380D01*
X122876190Y-75552380D01*
X122971428Y-75600000D01*
X123019047Y-75647619D01*
X123066666Y-75742857D01*
X123066666Y-75838095D01*
X123019047Y-75980952D01*
X122447619Y-76552380D01*
X123066666Y-76552380D01*
D11*
%TO.C,D11*%
X130617695Y-68707416D02*
X129804895Y-68707416D01*
X129804895Y-68513892D01*
X129843600Y-68397778D01*
X129921009Y-68320368D01*
X129998419Y-68281663D01*
X130153238Y-68242959D01*
X130269352Y-68242959D01*
X130424171Y-68281663D01*
X130501580Y-68320368D01*
X130578990Y-68397778D01*
X130617695Y-68513892D01*
X130617695Y-68707416D01*
X130617695Y-67468863D02*
X130617695Y-67933320D01*
X130617695Y-67701092D02*
X129804895Y-67701092D01*
X129921009Y-67778501D01*
X129998419Y-67855911D01*
X130037123Y-67933320D01*
X130617695Y-66694768D02*
X130617695Y-67159225D01*
X130617695Y-66926997D02*
X129804895Y-66926997D01*
X129921009Y-67004406D01*
X129998419Y-67081816D01*
X130037123Y-67159225D01*
%TO.C,R3*%
X125117695Y-50059959D02*
X124730647Y-50330892D01*
X125117695Y-50524416D02*
X124304895Y-50524416D01*
X124304895Y-50214778D01*
X124343600Y-50137368D01*
X124382304Y-50098663D01*
X124459714Y-50059959D01*
X124575828Y-50059959D01*
X124653238Y-50098663D01*
X124691942Y-50137368D01*
X124730647Y-50214778D01*
X124730647Y-50524416D01*
X124304895Y-49789025D02*
X124304895Y-49285863D01*
X124614533Y-49556797D01*
X124614533Y-49440682D01*
X124653238Y-49363273D01*
X124691942Y-49324568D01*
X124769352Y-49285863D01*
X124962876Y-49285863D01*
X125040285Y-49324568D01*
X125078990Y-49363273D01*
X125117695Y-49440682D01*
X125117695Y-49672911D01*
X125078990Y-49750320D01*
X125040285Y-49789025D01*
D10*
%TO.C,SW13*%
X92135476Y-74999761D02*
X92278333Y-75047380D01*
X92516428Y-75047380D01*
X92611666Y-74999761D01*
X92659285Y-74952142D01*
X92706904Y-74856904D01*
X92706904Y-74761666D01*
X92659285Y-74666428D01*
X92611666Y-74618809D01*
X92516428Y-74571190D01*
X92325952Y-74523571D01*
X92230714Y-74475952D01*
X92183095Y-74428333D01*
X92135476Y-74333095D01*
X92135476Y-74237857D01*
X92183095Y-74142619D01*
X92230714Y-74095000D01*
X92325952Y-74047380D01*
X92564047Y-74047380D01*
X92706904Y-74095000D01*
X93040238Y-74047380D02*
X93278333Y-75047380D01*
X93468809Y-74333095D01*
X93659285Y-75047380D01*
X93897380Y-74047380D01*
X94802142Y-75047380D02*
X94230714Y-75047380D01*
X94516428Y-75047380D02*
X94516428Y-74047380D01*
X94421190Y-74190238D01*
X94325952Y-74285476D01*
X94230714Y-74333095D01*
X95135476Y-74047380D02*
X95754523Y-74047380D01*
X95421190Y-74428333D01*
X95564047Y-74428333D01*
X95659285Y-74475952D01*
X95706904Y-74523571D01*
X95754523Y-74618809D01*
X95754523Y-74856904D01*
X95706904Y-74952142D01*
X95659285Y-74999761D01*
X95564047Y-75047380D01*
X95278333Y-75047380D01*
X95183095Y-74999761D01*
X95135476Y-74952142D01*
D11*
%TO.C,R7*%
X122867695Y-54423959D02*
X122480647Y-54694892D01*
X122867695Y-54888416D02*
X122054895Y-54888416D01*
X122054895Y-54578778D01*
X122093600Y-54501368D01*
X122132304Y-54462663D01*
X122209714Y-54423959D01*
X122325828Y-54423959D01*
X122403238Y-54462663D01*
X122441942Y-54501368D01*
X122480647Y-54578778D01*
X122480647Y-54888416D01*
X122054895Y-54153025D02*
X122054895Y-53611159D01*
X122867695Y-53959501D01*
D10*
%TO.C,J4*%
X125452380Y-63373333D02*
X126166666Y-63373333D01*
X126309523Y-63420952D01*
X126404761Y-63516190D01*
X126452380Y-63659047D01*
X126452380Y-63754285D01*
X125785714Y-62468571D02*
X126452380Y-62468571D01*
X125404761Y-62706666D02*
X126119047Y-62944761D01*
X126119047Y-62325714D01*
%TO.C,SW10*%
X86385476Y-90749761D02*
X86528333Y-90797380D01*
X86766428Y-90797380D01*
X86861666Y-90749761D01*
X86909285Y-90702142D01*
X86956904Y-90606904D01*
X86956904Y-90511666D01*
X86909285Y-90416428D01*
X86861666Y-90368809D01*
X86766428Y-90321190D01*
X86575952Y-90273571D01*
X86480714Y-90225952D01*
X86433095Y-90178333D01*
X86385476Y-90083095D01*
X86385476Y-89987857D01*
X86433095Y-89892619D01*
X86480714Y-89845000D01*
X86575952Y-89797380D01*
X86814047Y-89797380D01*
X86956904Y-89845000D01*
X87290238Y-89797380D02*
X87528333Y-90797380D01*
X87718809Y-90083095D01*
X87909285Y-90797380D01*
X88147380Y-89797380D01*
X89052142Y-90797380D02*
X88480714Y-90797380D01*
X88766428Y-90797380D02*
X88766428Y-89797380D01*
X88671190Y-89940238D01*
X88575952Y-90035476D01*
X88480714Y-90083095D01*
X89671190Y-89797380D02*
X89766428Y-89797380D01*
X89861666Y-89845000D01*
X89909285Y-89892619D01*
X89956904Y-89987857D01*
X90004523Y-90178333D01*
X90004523Y-90416428D01*
X89956904Y-90606904D01*
X89909285Y-90702142D01*
X89861666Y-90749761D01*
X89766428Y-90797380D01*
X89671190Y-90797380D01*
X89575952Y-90749761D01*
X89528333Y-90702142D01*
X89480714Y-90606904D01*
X89433095Y-90416428D01*
X89433095Y-90178333D01*
X89480714Y-89987857D01*
X89528333Y-89892619D01*
X89575952Y-89845000D01*
X89671190Y-89797380D01*
%TO.C,SW11*%
X92135476Y-40999761D02*
X92278333Y-41047380D01*
X92516428Y-41047380D01*
X92611666Y-40999761D01*
X92659285Y-40952142D01*
X92706904Y-40856904D01*
X92706904Y-40761666D01*
X92659285Y-40666428D01*
X92611666Y-40618809D01*
X92516428Y-40571190D01*
X92325952Y-40523571D01*
X92230714Y-40475952D01*
X92183095Y-40428333D01*
X92135476Y-40333095D01*
X92135476Y-40237857D01*
X92183095Y-40142619D01*
X92230714Y-40095000D01*
X92325952Y-40047380D01*
X92564047Y-40047380D01*
X92706904Y-40095000D01*
X93040238Y-40047380D02*
X93278333Y-41047380D01*
X93468809Y-40333095D01*
X93659285Y-41047380D01*
X93897380Y-40047380D01*
X94802142Y-41047380D02*
X94230714Y-41047380D01*
X94516428Y-41047380D02*
X94516428Y-40047380D01*
X94421190Y-40190238D01*
X94325952Y-40285476D01*
X94230714Y-40333095D01*
X95754523Y-41047380D02*
X95183095Y-41047380D01*
X95468809Y-41047380D02*
X95468809Y-40047380D01*
X95373571Y-40190238D01*
X95278333Y-40285476D01*
X95183095Y-40333095D01*
%TO.C,SW16*%
X110135476Y-57999761D02*
X110278333Y-58047380D01*
X110516428Y-58047380D01*
X110611666Y-57999761D01*
X110659285Y-57952142D01*
X110706904Y-57856904D01*
X110706904Y-57761666D01*
X110659285Y-57666428D01*
X110611666Y-57618809D01*
X110516428Y-57571190D01*
X110325952Y-57523571D01*
X110230714Y-57475952D01*
X110183095Y-57428333D01*
X110135476Y-57333095D01*
X110135476Y-57237857D01*
X110183095Y-57142619D01*
X110230714Y-57095000D01*
X110325952Y-57047380D01*
X110564047Y-57047380D01*
X110706904Y-57095000D01*
X111040238Y-57047380D02*
X111278333Y-58047380D01*
X111468809Y-57333095D01*
X111659285Y-58047380D01*
X111897380Y-57047380D01*
X112802142Y-58047380D02*
X112230714Y-58047380D01*
X112516428Y-58047380D02*
X112516428Y-57047380D01*
X112421190Y-57190238D01*
X112325952Y-57285476D01*
X112230714Y-57333095D01*
X113659285Y-57047380D02*
X113468809Y-57047380D01*
X113373571Y-57095000D01*
X113325952Y-57142619D01*
X113230714Y-57285476D01*
X113183095Y-57475952D01*
X113183095Y-57856904D01*
X113230714Y-57952142D01*
X113278333Y-57999761D01*
X113373571Y-58047380D01*
X113564047Y-58047380D01*
X113659285Y-57999761D01*
X113706904Y-57952142D01*
X113754523Y-57856904D01*
X113754523Y-57618809D01*
X113706904Y-57523571D01*
X113659285Y-57475952D01*
X113564047Y-57428333D01*
X113373571Y-57428333D01*
X113278333Y-57475952D01*
X113230714Y-57523571D01*
X113183095Y-57618809D01*
D11*
%TO.C,C5*%
X131790285Y-56277974D02*
X131828990Y-56316679D01*
X131867695Y-56432793D01*
X131867695Y-56510202D01*
X131828990Y-56626317D01*
X131751580Y-56703726D01*
X131674171Y-56742431D01*
X131519352Y-56781136D01*
X131403238Y-56781136D01*
X131248419Y-56742431D01*
X131171009Y-56703726D01*
X131093600Y-56626317D01*
X131054895Y-56510202D01*
X131054895Y-56432793D01*
X131093600Y-56316679D01*
X131132304Y-56277974D01*
X131054895Y-55542583D02*
X131054895Y-55929631D01*
X131441942Y-55968336D01*
X131403238Y-55929631D01*
X131364533Y-55852221D01*
X131364533Y-55658698D01*
X131403238Y-55581288D01*
X131441942Y-55542583D01*
X131519352Y-55503879D01*
X131712876Y-55503879D01*
X131790285Y-55542583D01*
X131828990Y-55581288D01*
X131867695Y-55658698D01*
X131867695Y-55852221D01*
X131828990Y-55929631D01*
X131790285Y-55968336D01*
%TO.C,D12*%
X125617695Y-70339416D02*
X124804895Y-70339416D01*
X124804895Y-70145892D01*
X124843600Y-70029778D01*
X124921009Y-69952368D01*
X124998419Y-69913663D01*
X125153238Y-69874959D01*
X125269352Y-69874959D01*
X125424171Y-69913663D01*
X125501580Y-69952368D01*
X125578990Y-70029778D01*
X125617695Y-70145892D01*
X125617695Y-70339416D01*
X125617695Y-69100863D02*
X125617695Y-69565320D01*
X125617695Y-69333092D02*
X124804895Y-69333092D01*
X124921009Y-69410501D01*
X124998419Y-69487911D01*
X125037123Y-69565320D01*
X124882304Y-68791225D02*
X124843600Y-68752520D01*
X124804895Y-68675111D01*
X124804895Y-68481587D01*
X124843600Y-68404178D01*
X124882304Y-68365473D01*
X124959714Y-68326768D01*
X125037123Y-68326768D01*
X125153238Y-68365473D01*
X125617695Y-68829930D01*
X125617695Y-68326768D01*
D10*
%TO.C,J3*%
X119942380Y-63173333D02*
X120656666Y-63173333D01*
X120799523Y-63220952D01*
X120894761Y-63316190D01*
X120942380Y-63459047D01*
X120942380Y-63554285D01*
X119942380Y-62792380D02*
X119942380Y-62173333D01*
X120323333Y-62506666D01*
X120323333Y-62363809D01*
X120370952Y-62268571D01*
X120418571Y-62220952D01*
X120513809Y-62173333D01*
X120751904Y-62173333D01*
X120847142Y-62220952D01*
X120894761Y-62268571D01*
X120942380Y-62363809D01*
X120942380Y-62649523D01*
X120894761Y-62744761D01*
X120847142Y-62792380D01*
D11*
%TO.C,R5*%
X129617695Y-54424959D02*
X129230647Y-54695892D01*
X129617695Y-54889416D02*
X128804895Y-54889416D01*
X128804895Y-54579778D01*
X128843600Y-54502368D01*
X128882304Y-54463663D01*
X128959714Y-54424959D01*
X129075828Y-54424959D01*
X129153238Y-54463663D01*
X129191942Y-54502368D01*
X129230647Y-54579778D01*
X129230647Y-54889416D01*
X128804895Y-53689568D02*
X128804895Y-54076616D01*
X129191942Y-54115320D01*
X129153238Y-54076616D01*
X129114533Y-53999206D01*
X129114533Y-53805682D01*
X129153238Y-53728273D01*
X129191942Y-53689568D01*
X129269352Y-53650863D01*
X129462876Y-53650863D01*
X129540285Y-53689568D01*
X129578990Y-53728273D01*
X129617695Y-53805682D01*
X129617695Y-53999206D01*
X129578990Y-54076616D01*
X129540285Y-54115320D01*
%TO.C,D14*%
X132117695Y-75589416D02*
X131304895Y-75589416D01*
X131304895Y-75395892D01*
X131343600Y-75279778D01*
X131421009Y-75202368D01*
X131498419Y-75163663D01*
X131653238Y-75124959D01*
X131769352Y-75124959D01*
X131924171Y-75163663D01*
X132001580Y-75202368D01*
X132078990Y-75279778D01*
X132117695Y-75395892D01*
X132117695Y-75589416D01*
X132117695Y-74350863D02*
X132117695Y-74815320D01*
X132117695Y-74583092D02*
X131304895Y-74583092D01*
X131421009Y-74660501D01*
X131498419Y-74737911D01*
X131537123Y-74815320D01*
X131575828Y-73654178D02*
X132117695Y-73654178D01*
X131266190Y-73847701D02*
X131846761Y-74041225D01*
X131846761Y-73538063D01*
%TO.C,C3*%
X134040285Y-56241959D02*
X134078990Y-56280663D01*
X134117695Y-56396778D01*
X134117695Y-56474187D01*
X134078990Y-56590301D01*
X134001580Y-56667711D01*
X133924171Y-56706416D01*
X133769352Y-56745120D01*
X133653238Y-56745120D01*
X133498419Y-56706416D01*
X133421009Y-56667711D01*
X133343600Y-56590301D01*
X133304895Y-56474187D01*
X133304895Y-56396778D01*
X133343600Y-56280663D01*
X133382304Y-56241959D01*
X133304895Y-55971025D02*
X133304895Y-55467863D01*
X133614533Y-55738797D01*
X133614533Y-55622682D01*
X133653238Y-55545273D01*
X133691942Y-55506568D01*
X133769352Y-55467863D01*
X133962876Y-55467863D01*
X134040285Y-55506568D01*
X134078990Y-55545273D01*
X134117695Y-55622682D01*
X134117695Y-55854911D01*
X134078990Y-55932320D01*
X134040285Y-55971025D01*
D10*
%TO.C,SW15*%
X110135476Y-40999761D02*
X110278333Y-41047380D01*
X110516428Y-41047380D01*
X110611666Y-40999761D01*
X110659285Y-40952142D01*
X110706904Y-40856904D01*
X110706904Y-40761666D01*
X110659285Y-40666428D01*
X110611666Y-40618809D01*
X110516428Y-40571190D01*
X110325952Y-40523571D01*
X110230714Y-40475952D01*
X110183095Y-40428333D01*
X110135476Y-40333095D01*
X110135476Y-40237857D01*
X110183095Y-40142619D01*
X110230714Y-40095000D01*
X110325952Y-40047380D01*
X110564047Y-40047380D01*
X110706904Y-40095000D01*
X111040238Y-40047380D02*
X111278333Y-41047380D01*
X111468809Y-40333095D01*
X111659285Y-41047380D01*
X111897380Y-40047380D01*
X112802142Y-41047380D02*
X112230714Y-41047380D01*
X112516428Y-41047380D02*
X112516428Y-40047380D01*
X112421190Y-40190238D01*
X112325952Y-40285476D01*
X112230714Y-40333095D01*
X113706904Y-40047380D02*
X113230714Y-40047380D01*
X113183095Y-40523571D01*
X113230714Y-40475952D01*
X113325952Y-40428333D01*
X113564047Y-40428333D01*
X113659285Y-40475952D01*
X113706904Y-40523571D01*
X113754523Y-40618809D01*
X113754523Y-40856904D01*
X113706904Y-40952142D01*
X113659285Y-40999761D01*
X113564047Y-41047380D01*
X113325952Y-41047380D01*
X113230714Y-40999761D01*
X113183095Y-40952142D01*
D11*
%TO.C,U1*%
X126080723Y-57254895D02*
X126080723Y-57912876D01*
X126119428Y-57990285D01*
X126158133Y-58028990D01*
X126235542Y-58067695D01*
X126390361Y-58067695D01*
X126467771Y-58028990D01*
X126506476Y-57990285D01*
X126545180Y-57912876D01*
X126545180Y-57254895D01*
X127357980Y-58067695D02*
X126893523Y-58067695D01*
X127125752Y-58067695D02*
X127125752Y-57254895D01*
X127048342Y-57371009D01*
X126970933Y-57448419D01*
X126893523Y-57487123D01*
D10*
%TO.C,U2*%
X134988095Y-59702380D02*
X134988095Y-60511904D01*
X135035714Y-60607142D01*
X135083333Y-60654761D01*
X135178571Y-60702380D01*
X135369047Y-60702380D01*
X135464285Y-60654761D01*
X135511904Y-60607142D01*
X135559523Y-60511904D01*
X135559523Y-59702380D01*
X135988095Y-59797619D02*
X136035714Y-59750000D01*
X136130952Y-59702380D01*
X136369047Y-59702380D01*
X136464285Y-59750000D01*
X136511904Y-59797619D01*
X136559523Y-59892857D01*
X136559523Y-59988095D01*
X136511904Y-60130952D01*
X135940476Y-60702380D01*
X136559523Y-60702380D01*
D11*
%TO.C,J1*%
X74341115Y-55070933D02*
X74921686Y-55070933D01*
X75037800Y-55109638D01*
X75115210Y-55187047D01*
X75153915Y-55303161D01*
X75153915Y-55380571D01*
X75153915Y-54258133D02*
X75153915Y-54722590D01*
X75153915Y-54490361D02*
X74341115Y-54490361D01*
X74457229Y-54567771D01*
X74534639Y-54645180D01*
X74573343Y-54722590D01*
D10*
%TO.C,D29*%
X120702380Y-69564285D02*
X119702380Y-69564285D01*
X119702380Y-69326190D01*
X119750000Y-69183333D01*
X119845238Y-69088095D01*
X119940476Y-69040476D01*
X120130952Y-68992857D01*
X120273809Y-68992857D01*
X120464285Y-69040476D01*
X120559523Y-69088095D01*
X120654761Y-69183333D01*
X120702380Y-69326190D01*
X120702380Y-69564285D01*
X119797619Y-68611904D02*
X119750000Y-68564285D01*
X119702380Y-68469047D01*
X119702380Y-68230952D01*
X119750000Y-68135714D01*
X119797619Y-68088095D01*
X119892857Y-68040476D01*
X119988095Y-68040476D01*
X120130952Y-68088095D01*
X120702380Y-68659523D01*
X120702380Y-68040476D01*
X120702380Y-67564285D02*
X120702380Y-67373809D01*
X120654761Y-67278571D01*
X120607142Y-67230952D01*
X120464285Y-67135714D01*
X120273809Y-67088095D01*
X119892857Y-67088095D01*
X119797619Y-67135714D01*
X119750000Y-67183333D01*
X119702380Y-67278571D01*
X119702380Y-67469047D01*
X119750000Y-67564285D01*
X119797619Y-67611904D01*
X119892857Y-67659523D01*
X120130952Y-67659523D01*
X120226190Y-67611904D01*
X120273809Y-67564285D01*
X120321428Y-67469047D01*
X120321428Y-67278571D01*
X120273809Y-67183333D01*
X120226190Y-67135714D01*
X120130952Y-67088095D01*
D11*
%TO.C,C4*%
X136290285Y-56176974D02*
X136328990Y-56215679D01*
X136367695Y-56331793D01*
X136367695Y-56409202D01*
X136328990Y-56525317D01*
X136251580Y-56602726D01*
X136174171Y-56641431D01*
X136019352Y-56680136D01*
X135903238Y-56680136D01*
X135748419Y-56641431D01*
X135671009Y-56602726D01*
X135593600Y-56525317D01*
X135554895Y-56409202D01*
X135554895Y-56331793D01*
X135593600Y-56215679D01*
X135632304Y-56176974D01*
X135825828Y-55480288D02*
X136367695Y-55480288D01*
X135516190Y-55673812D02*
X136096761Y-55867336D01*
X136096761Y-55364174D01*
%TO.C,D10*%
X128867695Y-75589416D02*
X128054895Y-75589416D01*
X128054895Y-75395892D01*
X128093600Y-75279778D01*
X128171009Y-75202368D01*
X128248419Y-75163663D01*
X128403238Y-75124959D01*
X128519352Y-75124959D01*
X128674171Y-75163663D01*
X128751580Y-75202368D01*
X128828990Y-75279778D01*
X128867695Y-75395892D01*
X128867695Y-75589416D01*
X128867695Y-74350863D02*
X128867695Y-74815320D01*
X128867695Y-74583092D02*
X128054895Y-74583092D01*
X128171009Y-74660501D01*
X128248419Y-74737911D01*
X128287123Y-74815320D01*
X128054895Y-73847701D02*
X128054895Y-73770292D01*
X128093600Y-73692882D01*
X128132304Y-73654178D01*
X128209714Y-73615473D01*
X128364533Y-73576768D01*
X128558057Y-73576768D01*
X128712876Y-73615473D01*
X128790285Y-73654178D01*
X128828990Y-73692882D01*
X128867695Y-73770292D01*
X128867695Y-73847701D01*
X128828990Y-73925111D01*
X128790285Y-73963816D01*
X128712876Y-74002520D01*
X128558057Y-74041225D01*
X128364533Y-74041225D01*
X128209714Y-74002520D01*
X128132304Y-73963816D01*
X128093600Y-73925111D01*
X128054895Y-73847701D01*
%TO.C,R6*%
X120617695Y-50059959D02*
X120230647Y-50330892D01*
X120617695Y-50524416D02*
X119804895Y-50524416D01*
X119804895Y-50214778D01*
X119843600Y-50137368D01*
X119882304Y-50098663D01*
X119959714Y-50059959D01*
X120075828Y-50059959D01*
X120153238Y-50098663D01*
X120191942Y-50137368D01*
X120230647Y-50214778D01*
X120230647Y-50524416D01*
X119804895Y-49363273D02*
X119804895Y-49518092D01*
X119843600Y-49595501D01*
X119882304Y-49634206D01*
X119998419Y-49711616D01*
X120153238Y-49750320D01*
X120462876Y-49750320D01*
X120540285Y-49711616D01*
X120578990Y-49672911D01*
X120617695Y-49595501D01*
X120617695Y-49440682D01*
X120578990Y-49363273D01*
X120540285Y-49324568D01*
X120462876Y-49285863D01*
X120269352Y-49285863D01*
X120191942Y-49324568D01*
X120153238Y-49363273D01*
X120114533Y-49440682D01*
X120114533Y-49595501D01*
X120153238Y-49672911D01*
X120191942Y-49711616D01*
X120269352Y-49750320D01*
%TO.C,C2*%
X118290285Y-50059959D02*
X118328990Y-50098663D01*
X118367695Y-50214778D01*
X118367695Y-50292187D01*
X118328990Y-50408301D01*
X118251580Y-50485711D01*
X118174171Y-50524416D01*
X118019352Y-50563120D01*
X117903238Y-50563120D01*
X117748419Y-50524416D01*
X117671009Y-50485711D01*
X117593600Y-50408301D01*
X117554895Y-50292187D01*
X117554895Y-50214778D01*
X117593600Y-50098663D01*
X117632304Y-50059959D01*
X117632304Y-49750320D02*
X117593600Y-49711616D01*
X117554895Y-49634206D01*
X117554895Y-49440682D01*
X117593600Y-49363273D01*
X117632304Y-49324568D01*
X117709714Y-49285863D01*
X117787123Y-49285863D01*
X117903238Y-49324568D01*
X118367695Y-49789025D01*
X118367695Y-49285863D01*
D12*
%TO.C,Q1*%
X117490000Y-56170000D02*
X117490000Y-57100000D01*
X117490000Y-56170000D02*
X118950000Y-56170000D01*
X117490000Y-59330000D02*
X119650000Y-59330000D01*
X117490000Y-59330000D02*
X117490000Y-58400000D01*
%TO.C,SW19*%
X115410000Y-72550000D02*
X115410000Y-73860000D01*
X113810000Y-72385000D02*
X113810000Y-71115000D01*
X108590000Y-73860000D02*
X115410000Y-73860000D01*
X108590000Y-69640000D02*
X108590000Y-70950000D01*
X110190000Y-72385000D02*
X113810000Y-72385000D01*
X108350000Y-69400000D02*
X109733000Y-69400000D01*
X110190000Y-71475000D02*
X111396667Y-71475000D01*
X110190000Y-71955000D02*
X111396667Y-71955000D01*
X110190000Y-71235000D02*
X111396667Y-71235000D01*
X110190000Y-72075000D02*
X111396667Y-72075000D01*
X108590000Y-72550000D02*
X108590000Y-73860000D01*
X110190000Y-71355000D02*
X111396667Y-71355000D01*
X110190000Y-71715000D02*
X111396667Y-71715000D01*
X108350000Y-69400000D02*
X108350000Y-70783000D01*
X115410000Y-69640000D02*
X115410000Y-70950000D01*
X111396667Y-71115000D02*
X111396667Y-72385000D01*
X110190000Y-71595000D02*
X111396667Y-71595000D01*
X110190000Y-72195000D02*
X111396667Y-72195000D01*
X108590000Y-69640000D02*
X115410000Y-69640000D01*
X110190000Y-72315000D02*
X111396667Y-72315000D01*
X113810000Y-71115000D02*
X110190000Y-71115000D01*
X110190000Y-71115000D02*
X110190000Y-72385000D01*
X110190000Y-71835000D02*
X111396667Y-71835000D01*
%TO.C,U4*%
X131400000Y-56140000D02*
X128450000Y-56140000D01*
X129600000Y-59360000D02*
X131400000Y-59360000D01*
D13*
%TO.C,D15*%
X131369000Y-68004000D02*
X131750000Y-67369000D01*
X131750000Y-67369000D02*
X132131000Y-68004000D01*
X132131000Y-68004000D02*
X131369000Y-68004000D01*
G36*
X132131000Y-68004000D02*
G01*
X131369000Y-68004000D01*
X131750000Y-67369000D01*
X132131000Y-68004000D01*
G37*
X132131000Y-68004000D02*
X131369000Y-68004000D01*
X131750000Y-67369000D01*
X132131000Y-68004000D01*
X132131000Y-68004000D02*
X131369000Y-68004000D01*
X131369000Y-68004000D02*
X131750000Y-67369000D01*
X131750000Y-67369000D02*
X132131000Y-68004000D01*
X132156400Y-67369000D02*
X131343600Y-67369000D01*
X131750000Y-68004000D02*
X131750000Y-68867600D01*
X131750000Y-66708600D02*
X131750000Y-67369000D01*
X131750000Y-66708600D02*
X131750000Y-67369000D01*
X132486600Y-66683200D02*
X131013400Y-66683200D01*
X131750000Y-67369000D02*
X132131000Y-68004000D01*
X132156400Y-67369000D02*
X131343600Y-67369000D01*
X132486600Y-65514800D02*
X132486600Y-66683200D01*
X132131000Y-68004000D02*
X131369000Y-68004000D01*
X131013400Y-65514800D02*
X132486600Y-65514800D01*
X131013400Y-66683200D02*
X131013400Y-65514800D01*
D12*
%TO.C,U3*%
X134750000Y-48749000D02*
X134750000Y-49749000D01*
X133750000Y-49749000D02*
X134750000Y-49749000D01*
X120250000Y-48749000D02*
X120250000Y-49749000D01*
X121250000Y-49749000D02*
X120250000Y-49749000D01*
D10*
%TO.C,SW14*%
X111192749Y-84366818D02*
X111685153Y-84453642D01*
X110411332Y-88798453D02*
X111192749Y-84366818D01*
X100390808Y-96678117D02*
X100564457Y-95693309D01*
X116314951Y-93901127D02*
X116835896Y-90946703D01*
X116609192Y-85321883D02*
X116435543Y-86306691D01*
X115821345Y-85182964D02*
X115039929Y-89614599D01*
X115624384Y-85148235D02*
X116609192Y-85321883D01*
X114351765Y-98124384D02*
X114178117Y-99109192D01*
X115445508Y-90193827D02*
X116430316Y-90367475D01*
X111100698Y-88920007D02*
X110411332Y-88798453D01*
X101375616Y-96851765D02*
X100390808Y-96678117D01*
X114178117Y-99109192D02*
X113193309Y-98935543D01*
X112288896Y-93698938D02*
X111883316Y-93119710D01*
X102821883Y-82890808D02*
X103806691Y-83064457D01*
X102648235Y-83875616D02*
X102821883Y-82890808D01*
X115230461Y-85078776D02*
X115821345Y-85182964D01*
X111883316Y-93119710D02*
X112317437Y-90657691D01*
X115735723Y-94306706D02*
X116314951Y-93901127D01*
X116835896Y-90946703D02*
X116430316Y-90367475D01*
X115039928Y-89614599D02*
G75*
G03*
X115445508Y-90193827I492404J-86824D01*
G01*
X112317436Y-90657691D02*
G75*
G03*
X111100698Y-88920007I-1477211J260473D01*
G01*
D13*
%TO.C,D17*%
X134619000Y-73254000D02*
X135000000Y-72619000D01*
X135000000Y-72619000D02*
X135381000Y-73254000D01*
X135381000Y-73254000D02*
X134619000Y-73254000D01*
G36*
X135381000Y-73254000D02*
G01*
X134619000Y-73254000D01*
X135000000Y-72619000D01*
X135381000Y-73254000D01*
G37*
X135381000Y-73254000D02*
X134619000Y-73254000D01*
X135000000Y-72619000D01*
X135381000Y-73254000D01*
X135406400Y-72619000D02*
X134593600Y-72619000D01*
X134263400Y-70764800D02*
X135736600Y-70764800D01*
X135000000Y-72619000D02*
X135381000Y-73254000D01*
X135381000Y-73254000D02*
X134619000Y-73254000D01*
X135381000Y-73254000D02*
X134619000Y-73254000D01*
X135406400Y-72619000D02*
X134593600Y-72619000D01*
X134263400Y-71933200D02*
X134263400Y-70764800D01*
X134619000Y-73254000D02*
X135000000Y-72619000D01*
X135736600Y-70764800D02*
X135736600Y-71933200D01*
X135000000Y-71958600D02*
X135000000Y-72619000D01*
X135000000Y-73254000D02*
X135000000Y-74117600D01*
X135736600Y-71933200D02*
X134263400Y-71933200D01*
X135000000Y-71958600D02*
X135000000Y-72619000D01*
X135000000Y-72619000D02*
X135381000Y-73254000D01*
D10*
%TO.C,SW17*%
X131178117Y-102109192D02*
X130193309Y-101935543D01*
X128883316Y-96119710D02*
X129317437Y-93657691D01*
X119648235Y-86875616D02*
X119821883Y-85890808D01*
X119821883Y-85890808D02*
X120806691Y-86064457D01*
X128192749Y-87366818D02*
X128685153Y-87453642D01*
X132445508Y-93193827D02*
X133430316Y-93367475D01*
X128100698Y-91920007D02*
X127411332Y-91798453D01*
X117390808Y-99678117D02*
X117564457Y-98693309D01*
X133609192Y-88321883D02*
X133435543Y-89306691D01*
X118375616Y-99851765D02*
X117390808Y-99678117D01*
X127411332Y-91798453D02*
X128192749Y-87366818D01*
X129288896Y-96698938D02*
X128883316Y-96119710D01*
X132735723Y-97306706D02*
X133314951Y-96901127D01*
X132821345Y-88182964D02*
X132039929Y-92614599D01*
X132624384Y-88148235D02*
X133609192Y-88321883D01*
X132230461Y-88078776D02*
X132821345Y-88182964D01*
X131351765Y-101124384D02*
X131178117Y-102109192D01*
X133835896Y-93946703D02*
X133430316Y-93367475D01*
X133314951Y-96901127D02*
X133835896Y-93946703D01*
X132039928Y-92614599D02*
G75*
G03*
X132445508Y-93193827I492404J-86824D01*
G01*
X129317436Y-93657691D02*
G75*
G03*
X128100698Y-91920007I-1477211J260473D01*
G01*
D14*
%TO.C,C1*%
X127400000Y-52799000D02*
X126600000Y-52799000D01*
X127400000Y-53199000D02*
X126600000Y-53199000D01*
X127000000Y-53199000D02*
X127000000Y-53399000D01*
X127000000Y-52599000D02*
X127000000Y-52799000D01*
D13*
%TO.C,D13*%
X135736600Y-66683200D02*
X134263400Y-66683200D01*
X135381000Y-68004000D02*
X134619000Y-68004000D01*
X134619000Y-68004000D02*
X135000000Y-67369000D01*
X134263400Y-65514800D02*
X135736600Y-65514800D01*
X135000000Y-67369000D02*
X135381000Y-68004000D01*
X134263400Y-66683200D02*
X134263400Y-65514800D01*
X135000000Y-66708600D02*
X135000000Y-67369000D01*
X135000000Y-67369000D02*
X135381000Y-68004000D01*
X135406400Y-67369000D02*
X134593600Y-67369000D01*
X135381000Y-68004000D02*
X134619000Y-68004000D01*
X135736600Y-65514800D02*
X135736600Y-66683200D01*
X135000000Y-66708600D02*
X135000000Y-67369000D01*
X135406400Y-67369000D02*
X134593600Y-67369000D01*
X135000000Y-68004000D02*
X135000000Y-68867600D01*
X134619000Y-68004000D02*
X135000000Y-67369000D01*
X135000000Y-67369000D02*
X135381000Y-68004000D01*
X135381000Y-68004000D02*
X134619000Y-68004000D01*
G36*
X135381000Y-68004000D02*
G01*
X134619000Y-68004000D01*
X135000000Y-67369000D01*
X135381000Y-68004000D01*
G37*
X135381000Y-68004000D02*
X134619000Y-68004000D01*
X135000000Y-67369000D01*
X135381000Y-68004000D01*
D10*
%TO.C,SW12*%
X96500000Y-65500000D02*
X96500000Y-66500000D01*
X96500000Y-65700000D02*
X92000000Y-65700000D01*
X91000000Y-67700000D02*
X91500000Y-67200000D01*
X82500000Y-53500000D02*
X82500000Y-52500000D01*
X82500000Y-52500000D02*
X83500000Y-52500000D01*
X87500000Y-63700000D02*
X88000000Y-63200000D01*
X87500000Y-67200000D02*
X88000000Y-67700000D01*
X95500000Y-52500000D02*
X96500000Y-52500000D01*
X83500000Y-66500000D02*
X82500000Y-66500000D01*
X91500000Y-66200000D02*
X91500000Y-67200000D01*
X92000000Y-61700000D02*
X92000000Y-61000000D01*
X96500000Y-65100000D02*
X96500000Y-65700000D01*
X96500000Y-52500000D02*
X96500000Y-53500000D01*
X88000000Y-63200000D02*
X90500000Y-63200000D01*
X96500000Y-66500000D02*
X95500000Y-66500000D01*
X96500000Y-61000000D02*
X96500000Y-61500000D01*
X88000000Y-67700000D02*
X91000000Y-67700000D01*
X82500000Y-66500000D02*
X82500000Y-65500000D01*
X92000000Y-61000000D02*
X96500000Y-61000000D01*
X92000000Y-65700000D02*
G75*
G03*
X91500000Y-66200000I0J-500000D01*
G01*
X90500000Y-63200000D02*
G75*
G03*
X92000000Y-61700000I0J1500000D01*
G01*
D12*
%TO.C,J2*%
X126560000Y-73190000D02*
X126560000Y-70690000D01*
X125760000Y-73300000D02*
X125760000Y-74510000D01*
X118540000Y-70990000D02*
X118540000Y-75010000D01*
X126260000Y-75010000D02*
X126260000Y-70990000D01*
X126260000Y-72490000D02*
X125260000Y-72490000D01*
X126560000Y-70690000D02*
X124060000Y-70690000D01*
X118540000Y-72490000D02*
X119540000Y-72490000D01*
X119040000Y-74510000D02*
X119040000Y-73300000D01*
X126260000Y-73300000D02*
X125760000Y-73300000D01*
X125760000Y-74510000D02*
X119040000Y-74510000D01*
X126260000Y-70990000D02*
X118540000Y-70990000D01*
X119540000Y-72490000D02*
X119540000Y-70990000D01*
X119040000Y-73300000D02*
X118540000Y-73300000D01*
X118540000Y-75010000D02*
X126260000Y-75010000D01*
X125260000Y-72490000D02*
X125260000Y-70990000D01*
D13*
%TO.C,D11*%
X128119000Y-68004000D02*
X128500000Y-67369000D01*
X128500000Y-67369000D02*
X128881000Y-68004000D01*
X128881000Y-68004000D02*
X128119000Y-68004000D01*
G36*
X128881000Y-68004000D02*
G01*
X128119000Y-68004000D01*
X128500000Y-67369000D01*
X128881000Y-68004000D01*
G37*
X128881000Y-68004000D02*
X128119000Y-68004000D01*
X128500000Y-67369000D01*
X128881000Y-68004000D01*
X128906400Y-67369000D02*
X128093600Y-67369000D01*
X128906400Y-67369000D02*
X128093600Y-67369000D01*
X128881000Y-68004000D02*
X128119000Y-68004000D01*
X128500000Y-66708600D02*
X128500000Y-67369000D01*
X127763400Y-65514800D02*
X129236600Y-65514800D01*
X129236600Y-65514800D02*
X129236600Y-66683200D01*
X128119000Y-68004000D02*
X128500000Y-67369000D01*
X128881000Y-68004000D02*
X128119000Y-68004000D01*
X128500000Y-68004000D02*
X128500000Y-68867600D01*
X128500000Y-67369000D02*
X128881000Y-68004000D01*
X128500000Y-67369000D02*
X128881000Y-68004000D01*
X128500000Y-66708600D02*
X128500000Y-67369000D01*
X129236600Y-66683200D02*
X127763400Y-66683200D01*
X127763400Y-66683200D02*
X127763400Y-65514800D01*
D12*
%TO.C,R3*%
X124950000Y-53199000D02*
X124750000Y-52999000D01*
X124950000Y-52799000D02*
X124750000Y-52599000D01*
X124750000Y-52999000D02*
X124950000Y-52799000D01*
X124750000Y-52999000D02*
X124550000Y-53199000D01*
X124550000Y-52799000D02*
X124750000Y-52999000D01*
X124550000Y-53199000D02*
X124750000Y-53399000D01*
X124750000Y-53399000D02*
X124950000Y-53199000D01*
X124750000Y-52599000D02*
X124550000Y-52799000D01*
X124750000Y-53399000D02*
X124750000Y-52599000D01*
D10*
%TO.C,SW13*%
X96500000Y-78000000D02*
X96500000Y-78500000D01*
X87500000Y-80700000D02*
X88000000Y-80200000D01*
X92000000Y-78700000D02*
X92000000Y-78000000D01*
X96500000Y-82700000D02*
X92000000Y-82700000D01*
X87500000Y-84200000D02*
X88000000Y-84700000D01*
X88000000Y-80200000D02*
X90500000Y-80200000D01*
X96500000Y-83500000D02*
X95500000Y-83500000D01*
X82500000Y-83500000D02*
X82500000Y-82500000D01*
X96500000Y-69500000D02*
X96500000Y-70500000D01*
X92000000Y-78000000D02*
X96500000Y-78000000D01*
X96500000Y-82500000D02*
X96500000Y-83500000D01*
X95500000Y-69500000D02*
X96500000Y-69500000D01*
X83500000Y-83500000D02*
X82500000Y-83500000D01*
X96500000Y-82100000D02*
X96500000Y-82700000D01*
X82500000Y-69500000D02*
X83500000Y-69500000D01*
X91500000Y-83200000D02*
X91500000Y-84200000D01*
X91000000Y-84700000D02*
X91500000Y-84200000D01*
X88000000Y-84700000D02*
X91000000Y-84700000D01*
X82500000Y-70500000D02*
X82500000Y-69500000D01*
X90500000Y-80200000D02*
G75*
G03*
X92000000Y-78700000I0J1500000D01*
G01*
X92000000Y-82700000D02*
G75*
G03*
X91500000Y-83200000I0J-500000D01*
G01*
D12*
%TO.C,R7*%
X122500000Y-52999000D02*
X122300000Y-53199000D01*
X122500000Y-52599000D02*
X122300000Y-52799000D01*
X122500000Y-52999000D02*
X122700000Y-52799000D01*
X122700000Y-53199000D02*
X122500000Y-52999000D01*
X122300000Y-53199000D02*
X122500000Y-53399000D01*
X122700000Y-52799000D02*
X122500000Y-52599000D01*
X122300000Y-52799000D02*
X122500000Y-52999000D01*
X122500000Y-53399000D02*
X122700000Y-53199000D01*
X122500000Y-52599000D02*
X122500000Y-53399000D01*
%TO.C,J4*%
X131695898Y-62230000D02*
X132060000Y-62230000D01*
X128750000Y-63850000D02*
X128750000Y-63435000D01*
X127440000Y-62750000D02*
X127440000Y-62065000D01*
X132060000Y-63850000D02*
X132060000Y-62230000D01*
X127440000Y-62065000D02*
X128250000Y-62065000D01*
X128750000Y-63850000D02*
X132060000Y-63850000D01*
X129695898Y-62230000D02*
X129804102Y-62230000D01*
X130695898Y-62230000D02*
X130804102Y-62230000D01*
D10*
%TO.C,SW10*%
X86250000Y-94450000D02*
X86250000Y-93750000D01*
X90750000Y-98450000D02*
X86250000Y-98450000D01*
X85250000Y-100450000D02*
X85750000Y-99950000D01*
X76750000Y-99250000D02*
X76750000Y-98250000D01*
X76750000Y-86250000D02*
X76750000Y-85250000D01*
X85750000Y-98950000D02*
X85750000Y-99950000D01*
X86250000Y-93750000D02*
X90750000Y-93750000D01*
X77750000Y-99250000D02*
X76750000Y-99250000D01*
X90750000Y-93750000D02*
X90750000Y-94250000D01*
X90750000Y-97850000D02*
X90750000Y-98450000D01*
X90750000Y-98250000D02*
X90750000Y-99250000D01*
X82250000Y-100450000D02*
X85250000Y-100450000D01*
X81750000Y-99950000D02*
X82250000Y-100450000D01*
X81750000Y-96450000D02*
X82250000Y-95950000D01*
X90750000Y-85250000D02*
X90750000Y-86250000D01*
X89750000Y-85250000D02*
X90750000Y-85250000D01*
X82250000Y-95950000D02*
X84750000Y-95950000D01*
X90750000Y-99250000D02*
X89750000Y-99250000D01*
X76750000Y-85250000D02*
X77750000Y-85250000D01*
X86250000Y-98450000D02*
G75*
G03*
X85750000Y-98950000I0J-500000D01*
G01*
X84750000Y-95950000D02*
G75*
G03*
X86250000Y-94450000I0J1500000D01*
G01*
%TO.C,SW11*%
X96500000Y-48100000D02*
X96500000Y-48700000D01*
X96500000Y-48500000D02*
X96500000Y-49500000D01*
X95500000Y-35500000D02*
X96500000Y-35500000D01*
X83500000Y-49500000D02*
X82500000Y-49500000D01*
X82500000Y-35500000D02*
X83500000Y-35500000D01*
X96500000Y-48700000D02*
X92000000Y-48700000D01*
X82500000Y-49500000D02*
X82500000Y-48500000D01*
X87500000Y-46700000D02*
X88000000Y-46200000D01*
X96500000Y-44000000D02*
X96500000Y-44500000D01*
X82500000Y-36500000D02*
X82500000Y-35500000D01*
X92000000Y-44000000D02*
X96500000Y-44000000D01*
X96500000Y-49500000D02*
X95500000Y-49500000D01*
X88000000Y-50700000D02*
X91000000Y-50700000D01*
X92000000Y-44700000D02*
X92000000Y-44000000D01*
X91000000Y-50700000D02*
X91500000Y-50200000D01*
X87500000Y-50200000D02*
X88000000Y-50700000D01*
X96500000Y-35500000D02*
X96500000Y-36500000D01*
X91500000Y-49200000D02*
X91500000Y-50200000D01*
X88000000Y-46200000D02*
X90500000Y-46200000D01*
X92000000Y-48700000D02*
G75*
G03*
X91500000Y-49200000I0J-500000D01*
G01*
X90500000Y-46200000D02*
G75*
G03*
X92000000Y-44700000I0J1500000D01*
G01*
%TO.C,SW16*%
X105500000Y-63700000D02*
X106000000Y-63200000D01*
X114500000Y-61000000D02*
X114500000Y-61500000D01*
X100500000Y-53500000D02*
X100500000Y-52500000D01*
X110000000Y-61700000D02*
X110000000Y-61000000D01*
X114500000Y-65500000D02*
X114500000Y-66500000D01*
X100500000Y-52500000D02*
X101500000Y-52500000D01*
X101500000Y-66500000D02*
X100500000Y-66500000D01*
X114500000Y-65100000D02*
X114500000Y-65700000D01*
X100500000Y-66500000D02*
X100500000Y-65500000D01*
X114500000Y-65700000D02*
X110000000Y-65700000D01*
X113500000Y-52500000D02*
X114500000Y-52500000D01*
X109500000Y-66200000D02*
X109500000Y-67200000D01*
X105500000Y-67200000D02*
X106000000Y-67700000D01*
X114500000Y-66500000D02*
X113500000Y-66500000D01*
X114500000Y-52500000D02*
X114500000Y-53500000D01*
X106000000Y-67700000D02*
X109000000Y-67700000D01*
X109000000Y-67700000D02*
X109500000Y-67200000D01*
X106000000Y-63200000D02*
X108500000Y-63200000D01*
X110000000Y-61000000D02*
X114500000Y-61000000D01*
X110000000Y-65700000D02*
G75*
G03*
X109500000Y-66200000I0J-500000D01*
G01*
X108500000Y-63200000D02*
G75*
G03*
X110000000Y-61700000I0J1500000D01*
G01*
D14*
%TO.C,C5*%
X131500000Y-52600000D02*
X131500000Y-52800000D01*
X131900000Y-53200000D02*
X131100000Y-53200000D01*
X131900000Y-52800000D02*
X131100000Y-52800000D01*
X131500000Y-53200000D02*
X131500000Y-53400000D01*
D13*
%TO.C,D12*%
X124513400Y-66683200D02*
X124513400Y-65514800D01*
X125250000Y-66708600D02*
X125250000Y-67369000D01*
X124869000Y-68004000D02*
X125250000Y-67369000D01*
X124513400Y-65514800D02*
X125986600Y-65514800D01*
X125631000Y-68004000D02*
X124869000Y-68004000D01*
X125656400Y-67369000D02*
X124843600Y-67369000D01*
X125631000Y-68004000D02*
X124869000Y-68004000D01*
X125250000Y-67369000D02*
X125631000Y-68004000D01*
X125250000Y-66708600D02*
X125250000Y-67369000D01*
X125250000Y-68004000D02*
X125250000Y-68867600D01*
X125250000Y-67369000D02*
X125631000Y-68004000D01*
X125656400Y-67369000D02*
X124843600Y-67369000D01*
X125986600Y-66683200D02*
X124513400Y-66683200D01*
X125986600Y-65514800D02*
X125986600Y-66683200D01*
X124869000Y-68004000D02*
X125250000Y-67369000D01*
X125250000Y-67369000D02*
X125631000Y-68004000D01*
X125631000Y-68004000D02*
X124869000Y-68004000D01*
G36*
X125631000Y-68004000D02*
G01*
X124869000Y-68004000D01*
X125250000Y-67369000D01*
X125631000Y-68004000D01*
G37*
X125631000Y-68004000D02*
X124869000Y-68004000D01*
X125250000Y-67369000D01*
X125631000Y-68004000D01*
D12*
%TO.C,J3*%
X125610000Y-62445507D02*
X125610000Y-62145000D01*
X122050000Y-63535000D02*
X121365000Y-63535000D01*
X122735000Y-62145000D02*
X125610000Y-62145000D01*
X122735000Y-63535000D02*
X125610000Y-63535000D01*
X121365000Y-63535000D02*
X121365000Y-62840000D01*
X125610000Y-63535000D02*
X125610000Y-63234493D01*
X122735000Y-62231724D02*
X122735000Y-62145000D01*
X122735000Y-63535000D02*
X122735000Y-63448276D01*
%TO.C,R5*%
X129250000Y-53400000D02*
X129450000Y-53200000D01*
X129450000Y-53200000D02*
X129250000Y-53000000D01*
X129250000Y-53000000D02*
X129050000Y-53200000D01*
X129450000Y-52800000D02*
X129250000Y-52600000D01*
X129050000Y-53200000D02*
X129250000Y-53400000D01*
X129050000Y-52800000D02*
X129250000Y-53000000D01*
X129250000Y-53000000D02*
X129450000Y-52800000D01*
X129250000Y-52600000D02*
X129250000Y-53400000D01*
X129250000Y-52600000D02*
X129050000Y-52800000D01*
D13*
%TO.C,D14*%
X131369000Y-73254000D02*
X131750000Y-72619000D01*
X131750000Y-72619000D02*
X132131000Y-73254000D01*
X132131000Y-73254000D02*
X131369000Y-73254000D01*
G36*
X132131000Y-73254000D02*
G01*
X131369000Y-73254000D01*
X131750000Y-72619000D01*
X132131000Y-73254000D01*
G37*
X132131000Y-73254000D02*
X131369000Y-73254000D01*
X131750000Y-72619000D01*
X132131000Y-73254000D01*
X131750000Y-72619000D02*
X132131000Y-73254000D01*
X131369000Y-73254000D02*
X131750000Y-72619000D01*
X131750000Y-73254000D02*
X131750000Y-74117600D01*
X132131000Y-73254000D02*
X131369000Y-73254000D01*
X132156400Y-72619000D02*
X131343600Y-72619000D01*
X131013400Y-70764800D02*
X132486600Y-70764800D01*
X132156400Y-72619000D02*
X131343600Y-72619000D01*
X131013400Y-71933200D02*
X131013400Y-70764800D01*
X132131000Y-73254000D02*
X131369000Y-73254000D01*
X132486600Y-70764800D02*
X132486600Y-71933200D01*
X131750000Y-71958600D02*
X131750000Y-72619000D01*
X132486600Y-71933200D02*
X131013400Y-71933200D01*
X131750000Y-71958600D02*
X131750000Y-72619000D01*
X131750000Y-72619000D02*
X132131000Y-73254000D01*
D14*
%TO.C,C3*%
X133750000Y-53399000D02*
X133750000Y-53199000D01*
X133350000Y-53199000D02*
X134150000Y-53199000D01*
X133750000Y-52799000D02*
X133750000Y-52599000D01*
X133350000Y-52799000D02*
X134150000Y-52799000D01*
D10*
%TO.C,SW15*%
X114500000Y-48100000D02*
X114500000Y-48700000D01*
X100500000Y-36500000D02*
X100500000Y-35500000D01*
X106000000Y-50700000D02*
X109000000Y-50700000D01*
X110000000Y-44700000D02*
X110000000Y-44000000D01*
X109000000Y-50700000D02*
X109500000Y-50200000D01*
X101500000Y-49500000D02*
X100500000Y-49500000D01*
X114500000Y-35500000D02*
X114500000Y-36500000D01*
X113500000Y-35500000D02*
X114500000Y-35500000D01*
X114500000Y-44000000D02*
X114500000Y-44500000D01*
X114500000Y-48700000D02*
X110000000Y-48700000D01*
X110000000Y-44000000D02*
X114500000Y-44000000D01*
X106000000Y-46200000D02*
X108500000Y-46200000D01*
X100500000Y-49500000D02*
X100500000Y-48500000D01*
X114500000Y-49500000D02*
X113500000Y-49500000D01*
X105500000Y-50200000D02*
X106000000Y-50700000D01*
X109500000Y-49200000D02*
X109500000Y-50200000D01*
X105500000Y-46700000D02*
X106000000Y-46200000D01*
X114500000Y-48500000D02*
X114500000Y-49500000D01*
X100500000Y-35500000D02*
X101500000Y-35500000D01*
X108500000Y-46200000D02*
G75*
G03*
X110000000Y-44700000I0J1500000D01*
G01*
X110000000Y-48700000D02*
G75*
G03*
X109500000Y-49200000I0J-500000D01*
G01*
D12*
%TO.C,U1*%
X124400000Y-56140000D02*
X121450000Y-56140000D01*
X122600000Y-59360000D02*
X124400000Y-59360000D01*
%TO.C,U2*%
X134990000Y-59330000D02*
X137150000Y-59330000D01*
X134990000Y-56170000D02*
X134990000Y-57100000D01*
X134990000Y-56170000D02*
X136450000Y-56170000D01*
X134990000Y-59330000D02*
X134990000Y-58400000D01*
%TO.C,D29*%
X121385000Y-70285000D02*
X121385000Y-66400000D01*
X119115000Y-70285000D02*
X121385000Y-70285000D01*
X119115000Y-66400000D02*
X119115000Y-70285000D01*
D14*
%TO.C,C4*%
X136400000Y-53199000D02*
X135600000Y-53199000D01*
X136000000Y-53199000D02*
X136000000Y-53399000D01*
X136000000Y-52599000D02*
X136000000Y-52799000D01*
X136400000Y-52799000D02*
X135600000Y-52799000D01*
D13*
%TO.C,D10*%
X128119000Y-73254000D02*
X128500000Y-72619000D01*
X128500000Y-72619000D02*
X128881000Y-73254000D01*
X128881000Y-73254000D02*
X128119000Y-73254000D01*
G36*
X128881000Y-73254000D02*
G01*
X128119000Y-73254000D01*
X128500000Y-72619000D01*
X128881000Y-73254000D01*
G37*
X128881000Y-73254000D02*
X128119000Y-73254000D01*
X128500000Y-72619000D01*
X128881000Y-73254000D01*
X128500000Y-71958600D02*
X128500000Y-72619000D01*
X128500000Y-72619000D02*
X128881000Y-73254000D01*
X128906400Y-72619000D02*
X128093600Y-72619000D01*
X128881000Y-73254000D02*
X128119000Y-73254000D01*
X129236600Y-70764800D02*
X129236600Y-71933200D01*
X127763400Y-70764800D02*
X129236600Y-70764800D01*
X128500000Y-72619000D02*
X128881000Y-73254000D01*
X128500000Y-73254000D02*
X128500000Y-74117600D01*
X128881000Y-73254000D02*
X128119000Y-73254000D01*
X128119000Y-73254000D02*
X128500000Y-72619000D01*
X127763400Y-71933200D02*
X127763400Y-70764800D01*
X129236600Y-71933200D02*
X127763400Y-71933200D01*
X128500000Y-71958600D02*
X128500000Y-72619000D01*
X128906400Y-72619000D02*
X128093600Y-72619000D01*
D12*
%TO.C,R6*%
X120450000Y-53199000D02*
X120250000Y-52999000D01*
X120450000Y-52799000D02*
X120250000Y-52599000D01*
X120250000Y-53399000D02*
X120250000Y-52599000D01*
X120250000Y-52999000D02*
X120050000Y-53199000D01*
X120050000Y-52799000D02*
X120250000Y-52999000D01*
X120050000Y-53199000D02*
X120250000Y-53399000D01*
X120250000Y-53399000D02*
X120450000Y-53199000D01*
X120250000Y-52599000D02*
X120050000Y-52799000D01*
X120250000Y-52999000D02*
X120450000Y-52799000D01*
D14*
%TO.C,C2*%
X118000000Y-53399000D02*
X118000000Y-53199000D01*
X117600000Y-53199000D02*
X118400000Y-53199000D01*
X118000000Y-52799000D02*
X118000000Y-52599000D01*
X117600000Y-52799000D02*
X118400000Y-52799000D01*
%TD*%
M02*
